<?xml version="1.0" encoding="UTF-8" standalone="no"?>
<svg width="10px" height="17px" viewBox="0 0 10 17" version="1.1" xmlns="http://www.w3.org/2000/svg" xmlns:xlink="http://www.w3.org/1999/xlink" xmlns:sketch="http://www.bohemiancoding.com/sketch/ns">
    <!-- Generator: bin/sketchtool 1.4 (305) - http://www.bohemiancoding.com/sketch -->
    <title>Facebook</title>
    <desc>Created with bin/sketchtool.</desc>
    <defs></defs>
    <g id="Page-1" stroke="none" stroke-width="1" fill="none" fill-rule="evenodd" sketch:type="MSPage">
        <g id="Free-Trial_Access" sketch:type="MSArtboardGroup" transform="translate(-937.000000, -770.000000)" fill="#4A4A4A">
            <g id="Footer" sketch:type="MSLayerGroup" transform="translate(0.000000, 761.000000)">
                <g id="Follow" transform="translate(875.000000, 9.000000)" sketch:type="MSShapeGroup">
                    <g id="Facebook" transform="translate(61.000000, 0.000000)">
                        <path d="M10.8771647,1.69290667 C10.8541882,1.57216 10.7573412,1.47104 10.6246706,1.42901333 C9.81505882,1.17386667 8.74504706,0.921066667 7.59671765,0.920426667 C6.69594118,0.920213333 5.74155294,1.07893333 4.85436471,1.52565333 L4.85436471,1.52565333 C4.40768235,1.74986667 4.05562353,2.03338667 3.78756471,2.35253333 C3.38411765,2.83189333 3.16942353,3.38357333 3.04836471,3.94357333 C2.95077647,4.39648 2.91396471,4.85792 2.8942,5.30528 C2.66295294,5.30997333 2.40082353,5.31146667 2.16216471,5.31146667 C1.9534,5.31146667 1.76242353,5.3104 1.62332941,5.30912 C1.55390588,5.30848 1.49782353,5.30805333 1.45878824,5.30762667 C1.41975294,5.30698667 1.399,5.30677333 1.39850588,5.30677333 C1.29375294,5.30549333 1.19097647,5.34133333 1.11611765,5.40469333 C1.04150588,5.46848 0.999011765,5.55701333 0.999752941,5.64768 L1.01531765,7.90048 C1.0168,8.08821333 1.19270588,8.25333333 1.40962353,8.25333333 L1.68361176,8.25333333 C2.06778824,8.25333333 2.78475294,8.23904 3.33594118,8.24842667 C3.41747059,9.79594667 3.43674118,12.1150933 3.43674118,13.91456 C3.43674118,14.6731733 3.43303529,15.3342933 3.43007059,15.8104533 C3.42809412,16.0478933 3.42661176,16.2366933 3.42512941,16.36768 C3.42389412,16.4984533 3.42315294,16.5684267 3.42315294,16.5688533 C3.42216471,16.6593067 3.46317647,16.74656 3.53754118,16.8109867 C3.61165882,16.8749867 3.71295294,16.9108267 3.81795294,16.9104 L7.30988235,16.8952533 C7.41488235,16.8948267 7.51370588,16.85856 7.58732941,16.79392 C7.6612,16.7294933 7.70147059,16.64352 7.70048235,16.55264 C7.70048235,16.55264 7.6822,14.69856 7.66070588,12.69856 C7.64242353,10.9786667 7.62216471,9.15338667 7.61055294,8.30325333 C7.82598824,8.30005333 8.077,8.29877333 8.32109412,8.29898667 C8.60644706,8.29898667 8.88414118,8.30048 9.09018824,8.30197333 C9.19296471,8.30261333 9.2782,8.30346667 9.33724706,8.30410667 C9.39678824,8.30474667 9.42989412,8.30496 9.42989412,8.30496 C9.53489412,8.30624 9.63594118,8.27104 9.7108,8.20746667 C9.78565882,8.14389333 9.82790588,8.05728 9.82815294,7.96661333 L9.8326,5.88 C9.83284706,5.78933333 9.79158824,5.67306667 9.71722353,5.60928 C9.64310588,5.54549333 9.54329412,5.48021333 9.43804706,5.48021333 L9.3076,5.48021333 C9.22409412,5.48021333 9.10525882,5.51093333 8.96270588,5.51093333 C8.52467059,5.51093333 7.86205882,5.52437333 7.3378,5.51669333 C7.34718824,5.28522667 7.3714,5.08832 7.41092941,4.91381333 C7.44897647,4.744 7.50135294,4.6064 7.56311765,4.49312 C7.60956471,4.40821333 7.6612,4.34122667 7.71654118,4.28512 C7.80054118,4.20106667 7.89145882,4.14432 8.00856471,4.10208 C8.12542353,4.06026667 8.27242353,4.03530667 8.46068235,4.03509333 C8.79495294,4.03424 9.25398824,4.11957333 9.82889412,4.31136 C9.83309412,4.31285333 9.83778824,4.31328 9.84223529,4.31477333 C9.84692941,4.31605333 9.85063529,4.3184 9.85532941,4.31946667 C9.86372941,4.32181333 9.87212941,4.32202667 9.88052941,4.32373333 C9.89387059,4.32650667 9.90696471,4.32906667 9.92005882,4.33056 C9.93290588,4.33184 9.94550588,4.33226667 9.95785882,4.33269333 C9.97095294,4.33290667 9.98355294,4.33312 9.99664706,4.33248 C10.0094941,4.33162667 10.0218471,4.33013333 10.0339529,4.32821333 C10.0465529,4.32650667 10.0591529,4.32437333 10.0712588,4.3216 C10.0831176,4.31882667 10.0949765,4.3152 10.1063412,4.31136 C10.1184471,4.30773333 10.1303059,4.30368 10.1416706,4.29877333 C10.1527882,4.29408 10.1631647,4.28874667 10.1737882,4.2832 C10.1846588,4.27744 10.1955294,4.27125333 10.2059059,4.26464 C10.2157882,4.25845333 10.2246824,4.25141333 10.2335765,4.24416 C10.2434588,4.23648 10.2528471,4.2288 10.2612471,4.22048 C10.2696471,4.21237333 10.2770588,4.20384 10.2847176,4.19509333 C10.2923765,4.18613333 10.3000353,4.17696 10.3067059,4.16714667 C10.3131294,4.15776 10.3188118,4.14730667 10.3244941,4.13685333 C10.3282,4.13002667 10.3328941,4.12384 10.3361059,4.11658667 C10.3380824,4.11274667 10.3385765,4.10869333 10.3403059,4.10442667 C10.3415412,4.1008 10.3442588,4.0976 10.3454941,4.09376 C10.4248,3.86805333 10.5609294,3.48981333 10.6777882,3.09066667 C10.7360941,2.89056 10.7902,2.68490667 10.8302235,2.48672 C10.87,2.28832 10.8969294,2.09888 10.8971765,1.92224 C10.8966824,1.84416 10.8912471,1.76842667 10.8771647,1.69290667 L10.8771647,1.69290667 Z M7.58337647,3.52608 C7.38894118,3.61290667 7.21945882,3.73536 7.08382353,3.88277333 C6.87950588,4.10464 6.74807059,4.37664 6.66555294,4.68618667 C6.58303529,4.99637333 6.54770588,5.34794667 6.54770588,5.74432 C6.54770588,5.78485333 6.5482,5.82602667 6.54869412,5.86762667 C6.55215294,6.04874667 6.71941176,6.14581333 6.92916471,6.15178667 C7.48776471,6.16714667 8.40311765,6.12 8.96245882,6.12 L9.04645882,6.12 L9.04349412,7.57344 C8.84263529,7.57216 8.58594118,7.59562667 8.32109412,7.59562667 C7.90282353,7.59562667 7.46972941,7.6112 7.19327059,7.62293333 C6.98154118,7.63210667 6.817,7.78997333 6.81996471,7.97301333 C6.83058824,8.55242667 6.85430588,10.7021867 6.87555294,12.7015467 C6.88617647,13.70144 6.89605882,14.66656 6.90347059,15.3799467 C6.90692941,15.7261867 6.90989412,16.0135467 6.91187059,16.2174933 L4.21201176,16.2298667 C4.21621176,15.7803733 4.22189412,14.92768 4.22189412,13.9060267 C4.22189412,11.97472 4.20064706,9.44608 4.10231765,7.88362667 C4.09144706,7.70784 3.92789412,7.56938667 3.72431765,7.5632 C3.1924,7.54698667 2.30842353,7.544 1.79874118,7.54378667 L1.78787059,5.98858667 C1.89904706,5.98922667 2.02702353,5.98986667 2.16241176,5.98986667 C2.54634118,5.98965333 2.9866,5.98624 3.29764706,5.97066667 C3.50122353,5.96064 3.66230588,5.81706667 3.66749412,5.64128 C3.68874118,4.92768 3.73568235,4.2032 3.95531765,3.58709333 C4.06476471,3.27861333 4.21522353,2.99786667 4.423,2.75104 C4.63127059,2.50442667 4.89587059,2.28981333 5.25015294,2.11146667 L5.25015294,2.11146667 C5.99454118,1.73728 6.80044706,1.59882667 7.59721176,1.59861333 C8.50416471,1.59797333 9.39135294,1.78165333 10.1090588,1.99157333 C10.1033765,2.0976 10.0850941,2.22837333 10.0564353,2.37024 C10.0035647,2.63221333 9.91783529,2.93045333 9.83062353,3.20352 C9.7906,3.32853333 9.75057647,3.44757333 9.71277647,3.55722667 C9.24954118,3.42773333 8.83695294,3.35797333 8.46068235,3.35733333 C8.14049412,3.35712 7.84303529,3.40938667 7.58337647,3.52608 L7.58337647,3.52608 Z" id="Shape"></path>
                    </g>
                </g>
            </g>
        </g>
    </g>
</svg>