<?xml version="1.0" encoding="UTF-8" standalone="no"?>
<svg width="123px" height="26px" viewBox="0 0 123 26" version="1.1" xmlns="http://www.w3.org/2000/svg" xmlns:xlink="http://www.w3.org/1999/xlink" xmlns:sketch="http://www.bohemiancoding.com/sketch/ns">
    <!-- Generator: bin/sketchtool 1.4 (305) - http://www.bohemiancoding.com/sketch -->
    <title>Fill 1</title>
    <desc>Created with bin/sketchtool.</desc>
    <defs></defs>
    <g id="Page-1" stroke="none" stroke-width="1" fill="none" fill-rule="evenodd" sketch:type="MSPage">
        <g id="Sign-in" sketch:type="MSArtboardGroup" transform="translate(-454.000000, -309.000000)" fill="#FFFFFF">
            <g sketch:type="MSLayerGroup" transform="translate(341.000000, 200.000000)" id="Sign-up-via-Facebook-+-Rectangle-87-Copy-2">
                <g transform="translate(71.000000, 102.000000)" sketch:type="MSShapeGroup">
                    <g id="Imported-EPS" transform="translate(42.000000, 7.000000)">
                        <g id="Page-1">
                            <path d="M65.85657,12.9773086 C64.8129777,12.9773086 64.0607022,13.3195179 63.2978971,13.6681619 L63.2978971,21.5571106 C64.0285287,21.6267224 64.4473695,21.6267224 65.1411477,21.6267224 C67.646003,21.6267224 67.9893823,20.47959 67.9893823,18.8779333 L67.9893823,15.1095359 C67.9893823,13.9273051 67.5968652,12.9773086 65.85657,12.9773086 L65.85657,12.9773086 Z M49.2211019,12.5467683 C47.4837314,12.5467683 47.0865346,13.5008596 47.0865346,14.6825055 L47.0865346,15.3458651 L51.3533292,15.3458651 L51.3533292,14.6825055 C51.3533292,13.5008596 50.9573023,12.5467683 49.2211019,12.5467683 L49.2211019,12.5467683 Z M16.9955128,20.7580372 C16.9955128,21.6928244 17.4365826,22.1783522 18.409978,22.1783522 C19.4541552,22.1783522 20.0718869,21.8378977 20.834107,21.4880838 L20.834107,19.6167545 L18.5509565,19.6167545 C17.470511,19.6167545 16.9955128,19.8179853 16.9955128,20.7580372 L16.9955128,20.7580372 Z M82.0392688,12.9773086 C80.2983885,12.9773086 79.6952811,13.9273051 79.6952811,15.1095359 L79.6952811,19.4260532 C79.6952811,20.6117939 80.2983885,21.5647153 82.0392688,21.5647153 C83.7748843,21.5647153 84.3826715,20.6117939 84.3826715,19.4260532 L84.3826715,15.1095359 C84.3826715,13.9273051 83.7748843,12.9773086 82.0392688,12.9773086 L82.0392688,12.9773086 Z M8.46426352,25.5981055 L3.34750287,25.5981055 L3.34750287,13.2118828 L0.79,13.2118828 L0.79,8.94333332 L3.34750287,8.94333332 L3.34750287,6.38056569 C3.34750287,2.89880516 4.79063177,0.828 8.89246391,0.828 L12.3069525,0.828 L12.3069525,5.09713447 L10.1729703,5.09713447 C8.5759934,5.09713447 8.47069822,5.69380715 8.47069822,6.80701116 L8.46426352,8.94333332 L12.3309364,8.94333332 L11.8787521,13.2118828 L8.46426352,13.2118828 L8.46426352,25.5981055 L8.46426352,25.5981055 Z M25.9532075,25.6302791 L21.6887528,25.6302791 L21.5039013,24.5515885 C19.5565255,25.6302791 17.8179851,25.8046011 16.6714376,25.8046011 C13.5441709,25.8046011 11.8787521,23.7150768 11.8787521,20.8258941 C11.8787521,17.4160853 13.8214482,16.199341 17.296774,16.199341 L20.834107,16.199341 L20.834107,15.4628597 C20.834107,13.7231494 20.6346311,13.2118828 17.9589637,13.2118828 L13.5833641,13.2118828 L14.0109795,8.94333332 L18.7937204,8.94333332 C24.6656815,8.94333332 25.9532075,10.7982834 25.9532075,15.4967882 L25.9532075,25.6302791 L25.9532075,25.6302791 Z M40.4564483,13.5248435 C37.8024248,13.0697343 37.0402047,12.9697039 35.7632082,12.9697039 C33.4695283,12.9697039 32.776335,13.4762907 32.776335,15.4236665 L32.776335,19.1084128 C32.776335,21.0563735 33.4695283,21.5647153 35.7632082,21.5647153 C37.0402047,21.5647153 37.8024248,21.4629299 40.4564483,21.0060658 L40.4564483,25.1699051 C38.1317647,25.6905313 36.6172691,25.828 35.3373477,25.828 C29.8432794,25.828 27.6589894,22.9382324 27.6589894,18.7644485 L27.6589894,15.7746504 C27.6589894,11.5973568 29.8432794,8.70290933 35.3373477,8.70290933 C36.6172691,8.70290933 38.1317647,8.84037803 40.4564483,9.36392905 L40.4564483,13.5248435 L40.4564483,13.5248435 Z M56.4706748,18.7644485 L47.0865346,18.7644485 L47.0865346,19.1084128 C47.0865346,21.0563735 47.7803128,21.5647153 50.0739928,21.5647153 C52.1354384,21.5647153 53.3937157,21.4629299 56.0430594,21.0060658 L56.0430594,25.1699051 C53.4878964,25.6905313 52.1564974,25.828 49.6493022,25.828 C44.1552339,25.828 41.969774,22.9382324 41.969774,18.7644485 L41.969774,15.3458651 C41.969774,11.6944623 43.5913197,8.70290933 49.2211019,8.70290933 C54.851469,8.70290933 56.4706748,11.6593639 56.4706748,15.3458651 L56.4706748,18.7644485 L56.4706748,18.7644485 Z M73.1055579,18.8434199 C73.1055579,22.8773951 71.9525758,25.8198104 64.9679956,25.8198104 C62.4455912,25.8198104 60.9661939,25.5981055 58.1823064,25.1699051 L58.1823064,2.1096763 L63.2978971,1.25620039 L63.2978971,9.32239596 C64.4034965,8.91115979 65.834341,8.70290933 67.1370763,8.70290933 C72.253252,8.70290933 73.1055579,10.9965893 73.1055579,14.6825055 L73.1055579,18.8434199 L73.1055579,18.8434199 Z M89.5041119,18.9311659 C89.5041119,22.4117565 88.0674177,25.7864669 82.056233,25.7864669 C76.0421235,25.7864669 74.5785205,22.4117565 74.5785205,18.9311659 L74.5785205,15.5710798 C74.5785205,12.0893192 76.0421235,8.71402382 82.056233,8.71402382 C88.0674177,8.71402382 89.5041119,12.0893192 89.5041119,15.5710798 L89.5041119,18.9311659 L89.5041119,18.9311659 Z M105.891551,18.9311659 C105.891551,22.4117565 104.453102,25.7864669 98.4430875,25.7864669 C92.428393,25.7864669 90.96479,22.4117565 90.96479,18.9311659 L90.96479,15.5710798 C90.96479,12.0893192 92.428393,8.71402382 98.4430875,8.71402382 C104.453102,8.71402382 105.891551,12.0893192 105.891551,15.5710798 L105.891551,18.9311659 L105.891551,18.9311659 Z M122.708946,25.5981055 L117.1634,25.5981055 L112.474255,17.7694091 L112.474255,25.5981055 L107.356909,25.5981055 L107.356909,2.1096763 L112.474255,1.25620039 L112.474255,16.3765879 L117.1634,8.94333332 L122.708946,8.94333332 L117.589261,17.0551568 L122.708946,25.5981055 L122.708946,25.5981055 Z M98.4255383,12.9773086 C96.6881679,12.9773086 96.0844755,13.9273051 96.0844755,15.1095359 L96.0844755,19.4260532 C96.0844755,20.6117939 96.6881679,21.5647153 98.4255383,21.5647153 C100.161154,21.5647153 100.775376,20.6117939 100.775376,19.4260532 L100.775376,15.1095359 C100.775376,13.9273051 100.161154,12.9773086 98.4255383,12.9773086 L98.4255383,12.9773086 Z" id="Fill-1"></path>
                        </g>
                    </g>
                </g>
            </g>
        </g>
    </g>
</svg>