<?xml version="1.0" encoding="utf-8"?>
<!-- Generator: Adobe Illustrator 16.0.0, SVG Export Plug-In . SVG Version: 6.00 Build 0)  -->
<!DOCTYPE svg PUBLIC "-//W3C//DTD SVG 1.1//EN" "http://www.w3.org/Graphics/SVG/1.1/DTD/svg11.dtd">
<svg version="1.1" id="Layer_1" xmlns:sketch="http://www.bohemiancoding.com/sketch/ns"
	 xmlns="http://www.w3.org/2000/svg" xmlns:xlink="http://www.w3.org/1999/xlink" x="0px" y="0px" width="15.089px"
	 height="15.506px" viewBox="0 0 15.089 15.506" enable-background="new 0 0 15.089 15.506" xml:space="preserve">
<title>Google</title>
<desc>Created with bin/sketchtool.</desc>
<path id="Fill-1" fill="#FFFFFF" d="M14.961,7.089H7.875v2.103H12.9c-0.248,2.949-2.702,4.207-5.017,4.207
	c-2.963,0-5.548-2.331-5.548-5.598c0-3.183,2.464-5.634,5.554-5.634c2.384,0,3.789,1.52,3.789,1.52l1.472-1.525
	c0,0-1.89-2.104-5.336-2.104c-4.389,0-7.784,3.704-7.784,7.706c0,3.921,3.194,7.743,7.896,7.743c4.136,0,7.163-2.833,7.163-7.022
	C15.089,7.6,14.961,7.089,14.961,7.089L14.961,7.089"/>
</svg>
