<?xml version="1.0" encoding="UTF-8" standalone="no"?>
<!-- Created with Inkscape (http://www.inkscape.org/) -->

<svg
   xmlns:dc="http://purl.org/dc/elements/1.1/"
   xmlns:cc="http://creativecommons.org/ns#"
   xmlns:rdf="http://www.w3.org/1999/02/22-rdf-syntax-ns#"
   xmlns:svg="http://www.w3.org/2000/svg"
   xmlns="http://www.w3.org/2000/svg"
   xmlns:sodipodi="http://sodipodi.sourceforge.net/DTD/sodipodi-0.dtd"
   xmlns:inkscape="http://www.inkscape.org/namespaces/inkscape"
   width="15.425304mm"
   height="5.057642mm"
   viewBox="0 0 54.65659 17.920779"
   id="svg2"
   version="1.1"
   inkscape:version="0.91 r13725"
   sodipodi:docname="google.svg">
  <defs
     id="defs4" />
  <sodipodi:namedview
     id="base"
     pagecolor="#ffffff"
     bordercolor="#666666"
     borderopacity="1.0"
     inkscape:pageopacity="0.0"
     inkscape:pageshadow="2"
     inkscape:zoom="3.959798"
     inkscape:cx="-26.287872"
     inkscape:cy="-17.202486"
     inkscape:document-units="px"
     inkscape:current-layer="layer1"
     showgrid="false"
     fit-margin-top="0"
     fit-margin-left="0"
     fit-margin-right="0"
     fit-margin-bottom="0"
     inkscape:window-width="1366"
     inkscape:window-height="705"
     inkscape:window-x="-8"
     inkscape:window-y="-8"
     inkscape:window-maximized="1" />
  <metadata
     id="metadata7">
    <rdf:RDF>
      <cc:Work
         rdf:about="">
        <dc:format>image/svg+xml</dc:format>
        <dc:type
           rdf:resource="http://purl.org/dc/dcmitype/StillImage" />
        <dc:title></dc:title>
      </cc:Work>
    </rdf:RDF>
  </metadata>
  <g
     inkscape:label="Layer 1"
     inkscape:groupmode="layer"
     id="layer1"
     transform="translate(-238.1552,-8.7892213)">
    <g
       style="fill:#ffffff;fill-rule:evenodd;stroke:none;stroke-width:1"
       id="Dieter-Rams-+-Rectangle-174"
       transform="translate(183.1279,1.7376286)">
      <g
         id="g4189"
         transform="translate(55,7)"
         style="fill:#ffffff">
        <path
           inkscape:connector-curvature="0"
           d="m 13.464985,6.3804255 -6.3776902,0 0,1.8925168 4.5231432,0 c -0.223441,2.6538237 -2.4313681,3.7855807 -4.5154836,3.7855807 -2.6664073,0 -4.9931672,-2.0979576 -4.9931672,-5.0384683 0,-2.8645167 2.217994,-5.0705836 4.9990213,-5.0705836 2.145611,0 3.4099335,1.3677812 3.4099335,1.3677812 l 1.325106,-1.3722128 c 0,0 -1.700808,-1.89344679 -4.802772,-1.89344679 -3.9499878,-5.472e-5 -7.00577509,3.33372039 -7.00577509,6.93465049 0,3.5284928 2.87447419,6.9691188 7.10644379,6.9691188 3.7220613,0 6.4466263,-2.549763 6.4466263,-6.3202435 0,-0.7954468 -0.115496,-1.2551854 -0.115496,-1.2551854 l 1.1e-4,4.924e-4"
           id="Fill-1"
           style="fill:#ffffff" />
        <path
           inkscape:connector-curvature="0"
           d="m 18.689362,5.0098541 c -2.616949,0 -4.492395,2.0459271 -4.492395,4.4320486 0,2.4214103 1.819094,4.5053613 4.523142,4.5053613 2.447891,0 4.453332,-1.87096 4.453332,-4.4533309 0,-2.959769 -2.332778,-4.484079 -4.484079,-4.484079 l 0,0 z m 0.02604,1.7553009 c 1.286918,0 2.506432,1.0404438 2.506432,2.7169605 0,1.6409545 -1.214316,2.7110515 -2.512341,2.7110515 -1.426212,0 -2.551349,-1.142261 -2.551349,-2.7240728 0,-1.5478906 1.111185,-2.7039392 2.557258,-2.7039392 l 0,0 z"
           id="Fill-2"
           style="fill:#ffffff" />
        <path
           inkscape:connector-curvature="0"
           d="m 28.459696,5.0098541 c -2.616948,0 -4.492395,2.0459271 -4.492395,4.4320486 0,2.4214103 1.819094,4.5053613 4.523143,4.5053613 2.44789,0 4.453331,-1.87096 4.453331,-4.4533309 0,-2.959769 -2.332778,-4.484079 -4.484079,-4.484079 l 0,0 z m 0.02604,1.7553009 c 1.286917,0 2.506431,1.0404438 2.506431,2.7169605 0,1.6409545 -1.214316,2.7110515 -2.51234,2.7110515 -1.426213,0 -2.55135,-1.142261 -2.55135,-2.7240728 0,-1.5478906 1.111186,-2.7039392 2.557259,-2.7039392 l 0,0 z"
           id="Fill-3"
           style="fill:#ffffff" />
        <path
           inkscape:connector-curvature="0"
           d="m 38.042918,5.0145593 c -2.402043,0 -4.290128,2.1038115 -4.290128,4.4651489 0,2.6897688 2.188942,4.4734648 4.248712,4.4734648 1.273623,0 1.950838,-0.505532 2.450844,-1.085854 l 0,0.88118 c 0,1.541762 -0.936109,2.465015 -2.349082,2.465015 -1.36499,0 -2.049647,-1.014949 -2.287586,-1.590894 l -1.717441,0.717976 c 0.609264,1.288285 1.835781,2.631775 4.019252,2.631775 2.388256,0 4.208499,-1.504286 4.208499,-4.659155 l 0,-8.0299698 -1.873587,0 0,0.7569848 C 39.876292,5.4194225 39.08845,5.0146687 38.042918,5.0146687 l 0,-1.094e-4 0,0 z m 0.173872,1.7517446 c 1.17766,0 2.386942,1.0055928 2.386942,2.7228694 0,1.7455077 -1.206711,2.7074957 -2.412984,2.7074957 -1.280572,0 -2.472128,-1.039787 -2.472128,-2.6909182 0,-1.7156353 1.237514,-2.7394469 2.498116,-2.7394469 l 5.4e-5,0 0,0 z"
           id="Fill-4"
           style="fill:#ffffff" />
        <path
           inkscape:connector-curvature="0"
           d="m 50.656596,5.0038906 c -2.265812,0 -4.168286,1.8027355 -4.168286,4.4627963 0,2.8147291 2.120553,4.4840791 4.385927,4.4840791 1.890711,0 3.051137,-1.034371 3.743672,-1.961125 l -1.544772,-1.02786 c -0.40087,0.622122 -1.071028,1.230128 -2.189435,1.230128 -1.256279,0 -1.833921,-0.687939 -2.191787,-1.354322 L 54.683891,8.3512888 54.372802,7.6226444 C 53.793957,6.1957751 52.443684,5.0041641 50.656815,5.0041641 l -2.19e-4,-2.735e-4 0,0 z m 0.07807,1.7186443 c 0.816456,0 1.404054,0.4340791 1.653592,0.9545472 l -4.001525,1.6725228 c -0.172505,-1.2948511 1.054231,-2.62707 2.347933,-2.62707 l 0,0 z"
           id="Fill-5"
           style="fill:#ffffff" />
        <path
           inkscape:connector-curvature="0"
           d="m 43.631672,0.5137386 1.968237,0 0,13.1717324 -1.968237,0 0,-13.1717324 z"
           id="Fill-6"
           style="fill:#ffffff" />
      </g>
    </g>
  </g>
</svg>
