<?xml version="1.0" encoding="UTF-8" standalone="no"?>
<svg width="61px" height="20px" viewBox="0 0 61 20" version="1.1" xmlns="http://www.w3.org/2000/svg" xmlns:xlink="http://www.w3.org/1999/xlink" xmlns:sketch="http://www.bohemiancoding.com/sketch/ns">
    <!-- Generator: bin/sketchtool 1.4 (305) - http://www.bohemiancoding.com/sketch -->
    <title>Google</title>
    <desc>Created with bin/sketchtool.</desc>
    <defs></defs>
    <g id="Page-1" stroke="none" stroke-width="1" fill="none" fill-rule="evenodd" sketch:type="MSPage">
        <g id="Sign-in" sketch:type="MSArtboardGroup" transform="translate(-427.000000, -402.000000)" fill="#FFFFFF">
            <g sketch:type="MSLayerGroup" transform="translate(341.000000, 200.000000)" id="Sign-up-via-Google">
                <g transform="translate(71.000000, 190.000000)" sketch:type="MSShapeGroup">
                    <g id="Google" transform="translate(15.000000, 12.000000)">
                        <path d="M14.9610942,7.0893617 L7.87477204,7.0893617 L7.87477204,9.19215805 L12.9004863,9.19215805 C12.6522188,12.1408511 10.1989666,13.3983587 7.88328267,13.3983587 C4.9206079,13.3983587 2.33531915,11.0672948 2.33531915,7.80006079 C2.33531915,4.61726444 4.79975684,2.16607903 7.88978723,2.16607903 C10.2737994,2.16607903 11.6786018,3.68583587 11.6786018,3.68583587 L13.1509422,2.16115502 C13.1509422,2.16115502 11.261155,0.057325228 7.81452888,0.057325228 C3.4256535,0.0572644377 0.0303343465,3.76145897 0.0303343465,7.7624924 C0.0303343465,11.6830395 3.22419453,15.5059574 7.92638298,15.5059574 C12.0620061,15.5059574 15.0893009,12.6728875 15.0893009,8.48346505 C15.0893009,7.59963526 14.9609726,7.08881459 14.9609726,7.08881459 L14.9610942,7.0893617" id="Fill-1"></path>
                        <path d="M20.7659574,5.56650456 C17.8582371,5.56650456 15.7744073,7.83975684 15.7744073,10.491003 C15.7744073,13.181459 17.7956231,15.4969605 20.8001216,15.4969605 C23.52,15.4969605 25.7482675,13.4181155 25.7482675,10.5488146 C25.7482675,7.26018237 23.1562918,5.56650456 20.7659574,5.56650456 L20.7659574,5.56650456 Z M20.7948936,7.51683891 C22.2248024,7.51683891 23.5798176,8.67288754 23.5798176,10.5356839 C23.5798176,12.3589666 22.2305775,13.5479635 20.7883283,13.5479635 C19.2036474,13.5479635 17.9534954,12.2787842 17.9534954,10.5212158 C17.9534954,8.80133739 19.1881459,7.51683891 20.7948936,7.51683891 L20.7948936,7.51683891 Z" id="Fill-2"></path>
                        <path d="M31.6218845,5.56650456 C28.7141641,5.56650456 26.6303343,7.83975684 26.6303343,10.491003 C26.6303343,13.181459 28.6515502,15.4969605 31.6560486,15.4969605 C34.3759271,15.4969605 36.6041945,13.4181155 36.6041945,10.5488146 C36.6041945,7.26018237 34.0122188,5.56650456 31.6218845,5.56650456 L31.6218845,5.56650456 Z M31.6508207,7.51683891 C33.0807295,7.51683891 34.4357447,8.67288754 34.4357447,10.5356839 C34.4357447,12.3589666 33.0865046,13.5479635 31.6442553,13.5479635 C30.0595745,13.5479635 28.8094225,12.2787842 28.8094225,10.5212158 C28.8094225,8.80133739 30.0440729,7.51683891 31.6508207,7.51683891 L31.6508207,7.51683891 Z" id="Fill-3"></path>
                        <path d="M42.2699088,5.57173252 C39.6009726,5.57173252 37.5031003,7.90930091 37.5031003,10.5330091 C37.5031003,13.5216413 39.9352584,15.5035258 42.2238906,15.5035258 C43.6390274,15.5035258 44.3914894,14.9418237 44.9470517,14.2970213 L44.9470517,15.2761094 C44.9470517,16.9891793 43.9069301,18.0150152 42.3369605,18.0150152 C40.820304,18.0150152 40.0595745,16.8872948 39.7951976,16.2473556 L37.8869301,17.0451064 C38.5638906,18.476535 39.9266869,19.9693009 42.352766,19.9693009 C45.006383,19.9693009 47.0288754,18.2978723 47.0288754,14.792462 L47.0288754,5.87027356 L44.9471125,5.87027356 L44.9471125,6.71136778 C44.3069909,6.02158055 43.4316109,5.5718541 42.2699088,5.5718541 L42.2699088,5.57173252 L42.2699088,5.57173252 Z M42.4631003,7.5181155 C43.7716109,7.5181155 45.1152584,8.63544073 45.1152584,10.5435258 C45.1152584,12.4829787 43.7744681,13.5518541 42.4341641,13.5518541 C41.011307,13.5518541 39.6873556,12.396535 39.6873556,10.5619453 C39.6873556,8.65568389 41.0623708,7.5181155 42.4630395,7.5181155 L42.4631003,7.5181155 L42.4631003,7.5181155 Z" id="Fill-4"></path>
                        <path d="M56.2851064,5.55987842 C53.767538,5.55987842 51.6536778,7.56291793 51.6536778,10.518541 C51.6536778,13.6460182 54.009848,15.5008511 56.5269301,15.5008511 C58.6277204,15.5008511 59.9170821,14.3515502 60.6865653,13.3218237 L58.970152,12.1797568 C58.5247416,12.871003 57.7801216,13.5465653 56.5374468,13.5465653 C55.1415805,13.5465653 54.4997568,12.7821884 54.1021277,12.0417629 L60.7598784,9.27920973 L60.4142249,8.46960486 C59.7710638,6.88419453 58.2707599,5.56018237 56.2853495,5.56018237 L56.2851064,5.55987842 L56.2851064,5.55987842 Z M56.3718541,7.46948328 C57.2790274,7.46948328 57.9319149,7.95179331 58.2091793,8.53009119 L53.7630395,10.3884498 C53.5713678,8.94972644 54.9344073,7.46948328 56.3718541,7.46948328 L56.3718541,7.46948328 Z" id="Fill-5"></path>
                        <path d="M48.4796353,0.570820669 L50.6665653,0.570820669 L50.6665653,15.206079 L48.4796353,15.206079 L48.4796353,0.570820669 Z" id="Fill-6"></path>
                    </g>
                </g>
            </g>
        </g>
    </g>
</svg>