<?xml version="1.0" encoding="UTF-8" standalone="no"?>
<svg width="17px" height="16px" viewBox="0 0 17 16" version="1.1" xmlns="http://www.w3.org/2000/svg" xmlns:xlink="http://www.w3.org/1999/xlink" xmlns:sketch="http://www.bohemiancoding.com/sketch/ns">
    <!-- Generator: bin/sketchtool 1.4 (305) - http://www.bohemiancoding.com/sketch -->
    <title>Instagram</title>
    <desc>Created with bin/sketchtool.</desc>
    <defs></defs>
    <g id="Page-1" stroke="none" stroke-width="1" fill="none" fill-rule="evenodd" sketch:type="MSPage">
        <g id="Free-Trial_Access" sketch:type="MSArtboardGroup" transform="translate(-986.000000, -770.000000)" fill="#4A4A4A">
            <g id="Footer" sketch:type="MSLayerGroup" transform="translate(0.000000, 761.000000)">
                <g id="Follow" transform="translate(875.000000, 9.000000)" sketch:type="MSShapeGroup">
                    <g id="Instagram" transform="translate(111.764706, 0.000000)">
                        <path d="M12.3428571,4.57142857 L13.5208791,4.57142857 C13.9956044,4.57142857 14.3824176,4.2021978 14.3824176,3.72747253 L14.3824176,2.54945055 C14.3824176,2.09230769 13.9956044,1.70549451 13.5208791,1.70549451 L12.3428571,1.70549451 C11.8857143,1.70549451 11.4989011,2.09230769 11.4989011,2.54945055 L11.4989011,3.72747253 C11.4989011,4.18461538 11.8857143,4.57142857 12.3428571,4.57142857 L12.3428571,4.57142857 Z M12.0087912,2.54945055 C12.0087912,2.37362637 12.167033,2.21538462 12.3428571,2.21538462 L13.5208791,2.21538462 C13.7142857,2.21538462 13.8725275,2.35604396 13.8725275,2.54945055 L13.8725275,3.72747253 C13.8725275,3.9032967 13.7142857,4.06153846 13.5208791,4.06153846 L12.3428571,4.06153846 C12.167033,4.06153846 12.0087912,3.9032967 12.0087912,3.72747253 L12.0087912,2.54945055 L12.0087912,2.54945055 Z" id="Shape"></path>
                        <path d="M12.8527473,0.0527472527 L3.28791209,0.0527472527 C1.54725275,0.0527472527 0.158241758,1.44175824 0.158241758,3.16483516 L0.158241758,12.7296703 C0.158241758,14.4527473 1.56483516,15.8593407 3.28791209,15.8593407 L12.8527473,15.8593407 C14.5758242,15.8593407 15.9824176,14.4527473 15.9824176,12.7296703 L15.9824176,3.16483516 C15.9824176,1.44175824 14.5758242,0.0527472527 12.8527473,0.0527472527 L12.8527473,0.0527472527 Z M3.28791209,0.562637363 L12.8527473,0.562637363 C14.2945055,0.562637363 15.4725275,1.74065934 15.4725275,3.16483516 L15.4725275,5.41538462 L10.9538462,5.41538462 L10.9538462,5.41538462 C10.1626374,4.65934066 9.09010989,4.21978022 7.92967033,4.21978022 C6.76923077,4.21978022 5.6967033,4.67692308 4.90549451,5.41538462 L0.668131868,5.41538462 L0.668131868,3.16483516 C0.668131868,1.72307692 1.82857143,0.562637363 3.28791209,0.562637363 L3.28791209,0.562637363 Z M5.15164835,5.87252747 C5.16923077,5.85494505 5.18681319,5.83736264 5.2043956,5.81978022 C5.90769231,5.13406593 6.87472527,4.71208791 7.92967033,4.71208791 C10.0923077,4.71208791 11.832967,6.48791209 11.832967,8.65054945 C11.832967,10.8131868 10.0747253,12.5538462 7.92967033,12.5538462 C5.76703297,12.5538462 3.99120879,10.7956044 3.99120879,8.65054945 C3.99120879,7.57802198 4.44835165,6.59340659 5.15164835,5.87252747 L5.15164835,5.87252747 Z M12.8527473,15.3494505 L3.28791209,15.3494505 C1.84615385,15.3494505 0.668131868,14.1714286 0.668131868,12.7296703 L0.668131868,5.92527473 L4.44835165,5.92527473 C3.85054945,6.68131868 3.4989011,7.63076923 3.4989011,8.66813187 C3.4989011,11.1120879 5.48571429,13.0989011 7.94725275,13.0989011 C10.3912088,13.0989011 12.3604396,11.1120879 12.3604396,8.66813187 C12.3604396,7.63076923 12.0087912,6.68131868 11.410989,5.92527473 L15.4725275,5.92527473 L15.4725275,12.7472527 C15.4549451,14.189011 14.2945055,15.3494505 12.8527473,15.3494505 L12.8527473,15.3494505 Z" id="Shape"></path>
                        <path d="M7.91208791,11.1824176 C9.31868132,11.1824176 10.443956,10.0395604 10.443956,8.63296703 C10.443956,7.22637363 9.3010989,6.08351648 7.91208791,6.08351648 C6.50549451,6.08351648 5.38021978,7.22637363 5.38021978,8.63296703 C5.36263736,10.0395604 6.50549451,11.1824176 7.91208791,11.1824176 L7.91208791,11.1824176 Z M7.91208791,6.61098901 C9.03736264,6.61098901 9.93406593,7.52527473 9.93406593,8.63296703 C9.93406593,9.75824176 9.01978022,10.6549451 7.91208791,10.6549451 C6.78681319,10.6549451 5.89010989,9.74065934 5.89010989,8.63296703 C5.87252747,7.52527473 6.78681319,6.61098901 7.91208791,6.61098901 L7.91208791,6.61098901 Z" id="Shape"></path>
                    </g>
                </g>
            </g>
        </g>
    </g>
</svg>