<?xml version="1.0" encoding="UTF-8" standalone="no"?>
<svg width="154px" height="35px" viewBox="0 0 154 35" version="1.1" xmlns="http://www.w3.org/2000/svg" xmlns:xlink="http://www.w3.org/1999/xlink" xmlns:sketch="http://www.bohemiancoding.com/sketch/ns">
    <!-- Generator: bin/sketchtool 1.4 (305) - http://www.bohemiancoding.com/sketch -->
    <title>Orobind_White</title>
    <desc>Created with bin/sketchtool.</desc>
    <defs></defs>
    <g id="Page-1" stroke="none" stroke-width="1" fill="none" fill-rule="evenodd" sketch:type="MSPage">
        <g id="What-Users-think" sketch:type="MSArtboardGroup" transform="translate(-20.000000, -21.000000)">
            <g id="Menu" sketch:type="MSLayerGroup">
                <g id="Orobind_White" transform="translate(20.000000, 21.000000)" sketch:type="MSShapeGroup">
                    <path d="M16.6104676,34.3100752 C10.645746,34.1409564 5.77683467,31.8153744 2.4740419,26.6890105 C0.77715088,24.0537744 -0.154799947,21.0505263 0.392711316,17.9091248 C1.02530347,14.2861714 2.7383441,11.1812932 5.61455076,8.75249323 C13.4766549,2.11477895 26.0205713,4.01160902 31.1033665,12.9534677 C34.3427425,18.6522947 32.8920346,25.8656481 27.7084028,30.2825865 C25.2363303,32.3894256 20.857028,34.4704602 16.6104676,34.3100752 L16.6104676,34.3100752 Z M16.5903791,28.143988 C16.6045592,28.2277534 16.6191333,28.3115188 16.6333134,28.3940932 C18.0595999,28.0820571 19.5544239,27.9494617 20.8999623,27.4266226 C26.7512428,25.1554286 28.1984056,17.7372271 23.7738056,13.4794827 C20.3276358,10.1626105 13.7129907,10.2054857 10.3759293,12.7045534 C5.95566209,16.0158677 5.62203472,22.1462256 9.75436614,25.8144361 C11.7025609,27.5433383 13.9855647,28.3309714 16.5903791,28.143988 L16.5903791,28.143988 Z" id="Fill-1" fill="#5BD7F1"></path>
                    <path d="M81.4862195,16.1091609 C81.4858256,18.532403 81.4826745,20.9556451 81.4874012,23.3784902 C81.491734,25.5941053 82.448894,27.0784602 84.5085605,27.8256 C85.9695096,28.354791 87.4934816,28.3408962 88.9335544,27.7080902 C91.0916941,26.7612632 92.0378251,24.9577263 91.6577183,22.6889143 C91.346149,20.8309895 89.3869252,19.2080842 87.2788099,19.061991 C86.7663551,19.0258647 86.2357813,19.058815 85.7449906,18.9341594 C84.1969911,18.5411368 83.2811899,17.2378105 83.4155074,15.7149474 C83.542341,14.2849805 84.8331283,13.0241323 86.4748743,13.0138105 C93.1958705,12.9725233 98.4771878,17.9265925 98.1935848,24.0009744 C97.9954566,28.2527639 95.634462,31.1154767 91.9759839,32.9730045 C86.2086026,35.9008241 79.4470355,33.5514226 76.4609327,28.7688541 C75.4868353,27.2082767 74.9869851,25.500415 74.9842278,23.6575759 C74.9759561,18.533991 74.9775317,13.410406 74.9830462,8.28761504 C74.9854095,6.21213835 76.3218885,4.79844812 78.2440863,4.8048 C80.1698291,4.81154887 81.473221,6.21094737 81.4826745,8.31937444 C81.4964607,10.9164992 81.4862195,13.5124331 81.4862195,16.1091609" id="Fill-2" fill="#5BD7F1"></path>
                    <path d="M153.493404,16.1151158 L153.493404,23.0736 C153.493404,28.2698346 150.3655,32.3243188 145.370937,33.7181594 C140.503995,35.0750797 136.274766,33.9273744 132.933371,30.2047759 C128.463474,25.2241083 129.91103,17.8118617 135.769401,14.5851068 C137.56319,13.5965955 139.479873,13.1523609 141.477698,12.9983278 C143.114324,12.8716872 144.529975,13.779609 145.001465,15.1575699 C145.412295,16.3596632 145.008555,17.7276992 143.837511,18.3910737 C143.154107,18.7777444 142.301722,18.9627429 141.508422,19.0270556 C139.739842,19.1707669 138.320646,19.8813835 137.379242,21.3895579 C135.937987,23.7000541 137.023556,26.7747609 139.711482,27.771212 C141.510391,28.4381594 143.358931,28.4008421 145.045975,27.2789414 C146.404118,26.3745925 147.126518,25.1165233 147.124942,23.4527278 C147.119822,18.3291429 147.11864,13.2047639 147.12573,8.08117895 C147.127306,6.59603008 147.872945,5.40981654 149.227149,4.95208421 C150.492727,4.52452331 151.734672,4.75477895 152.609902,5.80006015 C153.059728,6.33639699 153.430381,7.12164812 153.453621,7.80765113 C153.547761,10.5742917 153.493404,13.3452992 153.493404,16.1151158" id="Fill-3" fill="#5BD7F1"></path>
                    <path d="M61.9727605,34.317618 C57.7801635,34.2834767 54.7727905,33.0226286 52.4086447,30.4310617 C47.8942371,25.4817564 49.2551374,18.0437053 55.2352208,14.6299669 C59.5223522,12.1825083 65.4815593,12.7275789 69.2503275,15.9122526 C74.8274584,20.6249504 74.0526709,28.7867188 67.6440319,32.5680722 C65.6958371,33.7181594 63.5987508,34.4283789 61.9727605,34.317618 L61.9727605,34.317618 Z M61.2542997,28.1304902 C61.6316492,28.1304902 62.011362,28.1574857 62.3863482,28.1253293 C64.2222834,27.9693113 65.9124783,26.5274346 66.3946033,24.7286617 C66.8680627,22.9572812 66.2398033,21.2458466 64.6260237,20.1076692 C62.9531602,18.9286015 61.1010753,18.7610707 59.2296897,19.4685113 C56.8529394,20.3661113 55.7732787,22.4828752 56.3523014,24.8469654 C56.8383653,26.8275609 58.7971952,28.1527218 61.2542997,28.1304902 L61.2542997,28.1304902 Z" id="Fill-4" fill="#5BD7F1"></path>
                    <path d="M128.335065,26.3892812 C128.335065,27.982412 128.349245,29.5755429 128.331913,31.1686737 C128.311825,32.8848722 126.952106,34.2346466 125.240641,34.2719639 C123.422037,34.3108692 122.01899,33.0881323 121.96936,31.3060331 C121.88743,28.3647158 121.827165,25.4222075 121.849223,22.4793023 C121.858676,21.0275008 121.344646,19.9421233 120.040466,19.3958617 C118.613392,18.798785 117.135899,18.902003 116.012122,20.0282707 C115.515817,20.5257023 115.185341,21.4098045 115.162101,22.1311398 C115.068355,25.0716632 115.134529,28.0173474 115.116803,30.9610466 C115.107744,32.4779549 114.329805,33.5387188 112.874765,34.1211068 C111.776591,34.5601805 110.314066,34.1870075 109.445926,33.0964692 C109.060305,32.6109474 108.706195,31.9344722 108.694772,31.3381895 C108.630568,28.0153624 108.492705,24.6782436 108.733374,21.3712962 C109.015795,17.4569504 111.803376,14.5068992 115.714733,13.4608241 C120.476899,12.1864782 125.642018,14.3516752 127.522069,18.5272421 C127.990408,19.5677594 128.196808,20.7746165 128.297251,21.9247038 C128.427236,23.4019128 128.329156,24.8997654 128.329156,26.3892812 L128.335065,26.3892812" id="Fill-5" fill="#5BD7F1"></path>
                    <path d="M34.6472218,26.2916211 C34.7460889,24.2590195 34.6267393,22.1855278 34.9899087,20.2025504 C35.7851786,15.8669955 40.8683677,12.4742977 45.1870105,13.1825323 C46.6278711,13.4191398 47.684686,14.6089263 47.7071379,16.0214256 C47.7319532,17.5891489 46.8547535,18.6630135 45.255154,18.9941053 C44.9211328,19.063182 44.5709619,19.0524632 44.2326078,19.1040722 C42.0338971,19.4355609 41.1842699,20.5038677 41.2126302,22.7361564 C41.2468989,25.4329263 41.2291737,28.1316812 41.213418,30.8288481 C41.2055401,32.2226887 40.6292747,33.2477233 39.3365179,33.9027609 C38.1438099,34.5053955 37.0964484,34.3172211 36.0577526,33.6141474 C35.1978842,33.0325534 34.7488462,32.2191158 34.7453011,31.1714526 C34.7397866,29.5469594 34.7437255,27.9208782 34.7437255,26.295591 C34.7118202,26.294003 34.679521,26.292812 34.6472218,26.2916211" id="Fill-6" fill="#5BD7F1"></path>
                    <path d="M106.654406,23.6424902 C106.654406,26.032385 106.663072,28.4222797 106.651649,30.8121744 C106.641408,32.8157955 105.296657,34.2473504 103.44024,34.2624361 C101.610213,34.2767278 100.171322,32.839615 100.160293,30.8649744 C100.131538,26.0502496 100.133902,21.2363188 100.157929,16.421991 C100.168958,14.3373835 101.497559,13.1043248 103.58401,13.1400541 C105.607439,13.1753865 106.644559,14.2937143 106.652437,16.472806 C106.660709,18.8627008 106.654406,21.2525955 106.654406,23.6424902" id="Fill-7" fill="#5BD7F1"></path>
                    <path d="M108.577392,5.63570526 C108.577392,8.59846015 106.195127,10.9998677 103.25511,10.9998677 C100.315486,10.9998677 97.9328276,8.59846015 97.9328276,5.63570526 C97.9328276,2.67295038 100.315486,0.271542857 103.25511,0.271542857 C106.195127,0.271542857 108.577392,2.67295038 108.577392,5.63570526" id="Fill-8" fill="#5BD7F1"></path>
                    <path d="M104.456483,5.63570526 C104.456483,6.30463759 103.918426,6.84692932 103.25511,6.84692932 C102.5914,6.84692932 102.053342,6.30463759 102.053342,5.63570526 C102.053342,4.96716992 102.5914,4.4244812 103.25511,4.4244812 C103.918426,4.4244812 104.456483,4.96716992 104.456483,5.63570526 L104.456483,5.63570526 Z M103.826255,4.61940451 L104.792474,2.7559218 L103.826255,4.61940451 Z" id="Stroke-9" stroke="#FFFFFF" stroke-width="0.5"></path>
                </g>
            </g>
        </g>
    </g>
</svg>