<?xml version="1.0" encoding="UTF-8" standalone="no"?>
<svg
   xmlns:sketch="http://www.bohemiancoding.com/sketch/ns"
   xmlns:dc="http://purl.org/dc/elements/1.1/"
   xmlns:cc="http://creativecommons.org/ns#"
   xmlns:rdf="http://www.w3.org/1999/02/22-rdf-syntax-ns#"
   xmlns:svg="http://www.w3.org/2000/svg"
   xmlns="http://www.w3.org/2000/svg"
   xmlns:sodipodi="http://sodipodi.sourceforge.net/DTD/sodipodi-0.dtd"
   xmlns:inkscape="http://www.inkscape.org/namespaces/inkscape"
   width="154px"
   height="35px"
   viewBox="0 0 154 35"
   version="1.1"
   id="svg2"
   inkscape:version="0.91 r13725"
   sodipodi:docname="logo-white.svg">
  <metadata
     id="metadata25">
    <rdf:RDF>
      <cc:Work
         rdf:about="">
        <dc:format>image/svg+xml</dc:format>
        <dc:type
           rdf:resource="http://purl.org/dc/dcmitype/StillImage" />
        <dc:title>Orobind_White</dc:title>
      </cc:Work>
    </rdf:RDF>
  </metadata>
  <sodipodi:namedview
     pagecolor="#ffffff"
     bordercolor="#666666"
     borderopacity="1"
     objecttolerance="10"
     gridtolerance="10"
     guidetolerance="10"
     inkscape:pageopacity="0"
     inkscape:pageshadow="2"
     inkscape:window-width="1366"
     inkscape:window-height="705"
     id="namedview23"
     showgrid="false"
     inkscape:zoom="5.289526"
     inkscape:cx="72.452378"
     inkscape:cy="-5.016857"
     inkscape:window-x="-8"
     inkscape:window-y="-8"
     inkscape:window-maximized="1"
     inkscape:current-layer="Orobind_White" />
  <!-- Generator: bin/sketchtool 1.4 (305) - http://www.bohemiancoding.com/sketch -->
  <title
     id="title4">Orobind_White</title>
  <desc
     id="desc6">Created with bin/sketchtool.</desc>
  <defs
     id="defs8" />
  <g
     style="fill:none;fill-rule:evenodd;stroke:none;stroke-width:1"
     transform="translate(-20,-21)"
     sketch:type="MSArtboardGroup"
     id="What-Users-think">
    <g
       sketch:type="MSLayerGroup"
       id="Menu">
      <g
         sketch:type="MSShapeGroup"
         transform="translate(20,21)"
         id="Orobind_White">
        <path
           style="fill:#ffffff"
           inkscape:connector-curvature="0"
           id="Fill-1"
           d="M 16.610468,34.310075 C 10.645746,34.140956 5.7768347,31.815374 2.4740419,26.68901 0.77715088,24.053774 -0.15479995,21.050526 0.39271132,17.909125 1.0253035,14.286171 2.7383441,11.181293 5.6145508,8.7524932 13.476655,2.1147789 26.020571,4.011609 31.103366,12.953468 c 3.239376,5.698827 1.788669,12.91218 -3.394963,17.329118 -2.472073,2.10684 -6.851375,4.187874 -11.097935,4.027489 l 0,0 z m -0.02009,-6.166087 c 0.01418,0.08376 0.02875,0.167531 0.04293,0.250105 1.426287,-0.312036 2.921111,-0.444631 4.266649,-0.96747 5.851281,-2.271194 7.298444,-9.689396 2.873844,-13.94714 -3.44617,-3.316872 -10.060815,-3.273997 -13.397877,-0.77493 -4.4202669,3.311315 -4.7538943,9.441673 -0.6215629,13.109883 1.9481949,1.728902 4.2311989,2.516535 6.8360129,2.329552 l 0,0 z" />
        <path
           style="fill:#ffffff"
           inkscape:connector-curvature="0"
           id="Fill-2"
           d="m 81.48622,16.109161 c -3.94e-4,2.423242 -0.0035,4.846484 0.0012,7.269329 0.0043,2.215615 0.961493,3.69997 3.02116,4.44711 1.460949,0.529191 2.984921,0.515296 4.424993,-0.11751 2.15814,-0.946827 3.104271,-2.750364 2.724164,-5.019176 -0.311569,-1.857925 -2.270793,-3.48083 -4.378908,-3.626923 -0.512455,-0.03613 -1.043029,-0.0032 -1.533819,-0.127832 -1.548,-0.393022 -2.463801,-1.696349 -2.329484,-3.219212 0.126834,-1.429966 1.417621,-2.690815 3.059367,-2.701136 6.720996,-0.04129 12.002314,4.912782 11.718711,10.987163 -0.198128,4.25179 -2.559123,7.114503 -6.217601,8.972031 -5.767381,2.927819 -12.528949,0.578418 -15.515051,-4.204151 -0.974098,-1.560577 -1.473948,-3.268439 -1.476705,-5.111278 -0.0083,-5.123585 -0.0067,-10.24717 -0.0012,-15.369961 0.0024,-2.0754767 1.338842,-3.4891669 3.26104,-3.482815 1.925743,0.00675 3.229135,1.4061474 3.238589,3.5145744 0.01379,2.5971246 0.0035,5.1930586 0.0035,7.7897866" />
        <path
           style="fill:#ffffff"
           inkscape:connector-curvature="0"
           id="Fill-3"
           d="m 153.4934,16.115116 0,6.958484 c 0,5.196235 -3.1279,9.250719 -8.12246,10.644559 -4.86695,1.356921 -9.09617,0.209215 -12.43757,-3.513383 -4.4699,-4.980668 -3.02234,-12.392914 2.83603,-15.619669 1.79379,-0.988512 3.71047,-1.432746 5.7083,-1.586779 1.63662,-0.126641 3.05227,0.781281 3.52376,2.159242 0.41083,1.202093 0.007,2.570129 -1.16395,3.233504 -0.6834,0.38667 -1.53579,0.571669 -2.32909,0.635982 -1.76858,0.143711 -3.18777,0.854327 -4.12918,2.362502 -1.44125,2.310496 -0.35568,5.385203 2.33224,6.381654 1.79891,0.666947 3.64745,0.62963 5.33449,-0.492271 1.35815,-0.904349 2.08055,-2.162418 2.07897,-3.826213 -0.005,-5.123585 -0.006,-10.247964 7.9e-4,-15.371549 0.002,-1.4851489 0.74721,-2.6713625 2.10142,-3.1290948 1.26558,-0.4275609 2.50752,-0.1973052 3.38275,0.8479759 0.44983,0.5363369 0.82048,1.321588 0.84372,2.007591 0.0941,2.7666409 0.0398,5.5376479 0.0398,8.3074649" />
        <path
           style="fill:#ffffff"
           inkscape:connector-curvature="0"
           id="Fill-4"
           d="m 61.97276,34.317618 c -4.192597,-0.03414 -7.19997,-1.294989 -9.564115,-3.886556 -4.514408,-4.949306 -3.153508,-12.387357 2.826576,-15.801095 4.287131,-2.447459 10.246338,-1.902388 14.015106,1.282286 5.577131,4.712697 4.802344,12.874466 -1.606295,16.655819 -1.948195,1.150087 -4.045281,1.860307 -5.671272,1.749546 l 0,0 z M 61.2543,28.13049 c 0.377349,0 0.757062,0.027 1.132048,-0.0052 1.835935,-0.156018 3.52613,-1.597894 4.008255,-3.396667 0.47346,-1.771381 -0.1548,-3.482815 -1.768579,-4.620993 -1.672864,-1.179068 -3.524949,-1.346598 -5.396334,-0.639158 -2.376751,0.8976 -3.456411,3.014364 -2.877389,5.378454 0.486064,1.980596 2.444894,3.305757 4.901999,3.283525 l 0,0 z" />
        <path
           style="fill:#ffffff"
           inkscape:connector-curvature="0"
           id="Fill-5"
           d="m 128.33506,26.389281 c 0,1.593131 0.0142,3.186262 -0.003,4.779393 -0.0201,1.716198 -1.3798,3.065973 -3.09127,3.10329 -1.8186,0.0389 -3.22165,-1.183832 -3.27128,-2.965931 -0.0819,-2.941317 -0.1422,-5.883826 -0.12014,-8.826731 0.009,-1.451801 -0.50457,-2.537179 -1.80875,-3.08344 -1.42708,-0.597077 -2.90457,-0.493859 -4.02835,0.632409 -0.4963,0.497431 -0.82678,1.381533 -0.85002,2.102869 -0.0937,2.940523 -0.0276,5.886207 -0.0453,8.829907 -0.009,1.516908 -0.787,2.577672 -2.24204,3.16006 -1.09817,0.439074 -2.56069,0.0659 -3.42883,-1.024638 -0.38562,-0.485522 -0.73974,-1.161997 -0.75116,-1.75828 -0.0642,-3.322827 -0.20206,-6.659945 0.0386,-9.966893 0.28242,-3.914346 3.07001,-6.864397 6.98136,-7.910472 4.76217,-1.274346 9.92729,0.890851 11.80734,5.066418 0.46834,1.040517 0.67474,2.247374 0.77518,3.397462 0.12999,1.477209 0.0319,2.975061 0.0319,4.464577 l 0.006,0" />
        <path
           style="fill:#ffffff"
           inkscape:connector-curvature="0"
           id="Fill-6"
           d="m 34.647222,26.291621 c 0.09887,-2.032602 -0.02048,-4.106093 0.342687,-6.089071 0.79527,-4.335554 5.878459,-7.728252 10.197101,-7.020018 1.440861,0.236608 2.497676,1.426394 2.520128,2.838894 0.02481,1.567723 -0.852385,2.641588 -2.451984,2.972679 -0.334021,0.06908 -0.684192,0.05836 -1.022546,0.109967 -2.198711,0.331489 -3.048338,1.399796 -3.019978,3.632084 0.03427,2.69677 0.01654,5.395525 7.88e-4,8.092692 -0.0079,1.393841 -0.584143,2.418875 -1.8769,3.073913 -1.192708,0.602634 -2.24007,0.41446 -3.278765,-0.288614 -0.859869,-0.581594 -1.308907,-1.395031 -1.312452,-2.442694 -0.0055,-1.624494 -0.0016,-3.250575 -0.0016,-4.875862 -0.0319,-0.0016 -0.0642,-0.0028 -0.0965,-0.004" />
        <path
           style="fill:#ffffff"
           inkscape:connector-curvature="0"
           id="Fill-7"
           d="m 106.65441,23.64249 c 0,2.389895 0.009,4.77979 -0.003,7.169684 -0.0102,2.003621 -1.35499,3.435176 -3.21141,3.450262 -1.83003,0.01429 -3.26892,-1.422821 -3.27995,-3.397462 -0.0288,-4.814724 -0.0264,-9.628655 -0.002,-14.442983 0.011,-2.084607 1.33963,-3.317666 3.42608,-3.281937 2.02343,0.03533 3.06055,1.15366 3.06843,3.332752 0.008,2.389895 0.002,4.77979 0.002,7.169684" />
        <path
           style="fill:#ffffff"
           inkscape:connector-curvature="0"
           id="Fill-8"
           d="m 108.57739,5.6357053 c 0,2.9627548 -2.38226,5.3641627 -5.32228,5.3641627 -2.93962,0 -5.322282,-2.4014079 -5.322282,-5.3641627 0,-2.9627549 2.382662,-5.36416244 5.322282,-5.36416244 2.94002,0 5.32228,2.40140754 5.32228,5.36416244" />
        <path
           style="stroke:#5bd7f1;stroke-width:0.5"
           inkscape:connector-curvature="0"
           id="Stroke-9"
           d="m 104.45648,5.6357053 c 0,0.6689323 -0.53805,1.211224 -1.20137,1.211224 -0.66371,0 -1.20177,-0.5422917 -1.20177,-1.211224 0,-0.6685354 0.53806,-1.2112241 1.20177,-1.2112241 0.66332,0 1.20137,0.5426887 1.20137,1.2112241 l 0,0 z m -0.63022,-1.0163008 0.96621,-1.8634827 -0.96621,1.8634827 z" />
      </g>
    </g>
  </g>
</svg>
