<?xml version="1.0" encoding="utf-8"?>
<!-- Generator: Adobe Illustrator 16.0.0, SVG Export Plug-In . SVG Version: 6.00 Build 0)  -->
<!DOCTYPE svg PUBLIC "-//W3C//DTD SVG 1.1//EN" "http://www.w3.org/Graphics/SVG/1.1/DTD/svg11.dtd">
<svg version="1.1" id="Layer_1" xmlns="http://www.w3.org/2000/svg" xmlns:xlink="http://www.w3.org/1999/xlink" x="0px" y="0px"
	 width="101.154px" height="39.902px" viewBox="0 0 101.154 39.902" enable-background="new 0 0 101.154 39.902"
	 xml:space="preserve">
<path fill="#47D4D4" d="M10.805,22.475c-3.936-0.108-7.149-1.625-9.328-4.971c-1.122-1.718-1.735-3.675-1.375-5.727
	C0.52,9.417,1.652,7.392,3.551,5.81c5.188-4.328,13.467-3.095,16.82,2.737c2.137,3.716,1.18,8.417-2.242,11.302
	C16.5,21.225,13.609,22.58,10.805,22.475L10.805,22.475z M10.793,18.455c0.008,0.056,0.021,0.108,0.027,0.164
	c0.942-0.207,1.93-0.293,2.817-0.634c3.861-1.48,4.814-6.315,1.896-9.094c-2.271-2.164-6.64-2.138-8.844-0.509
	c-2.918,2.161-3.136,6.161-0.41,8.552C7.566,18.064,9.074,18.576,10.793,18.455L10.793,18.455z"/>
<path fill="#47D4D4" d="M53.621,10.607c0,1.578,0,3.16,0,4.738c0.004,1.444,0.637,2.413,1.996,2.901
	c0.965,0.343,1.969,0.336,2.918-0.078c1.426-0.616,2.051-1.793,1.801-3.272c-0.207-1.211-1.5-2.271-2.891-2.362
	c-0.34-0.022-0.688-0.005-1.012-0.087c-1.023-0.254-1.629-1.104-1.539-2.098c0.086-0.934,0.938-1.754,2.02-1.762
	c4.438-0.027,7.922,3.203,7.734,7.164c-0.133,2.772-1.688,4.642-4.105,5.853c-3.805,1.91-8.266,0.375-10.236-2.742
	c-0.643-1.016-0.975-2.129-0.975-3.332c-0.008-3.34-0.004-6.684,0-10.023c0-1.352,0.883-2.272,2.148-2.27
	c1.271,0.005,2.133,0.914,2.141,2.289C53.629,7.22,53.621,8.912,53.621,10.607"/>
<path fill="#47D4D4" d="M101.145,10.611v4.535c0,3.392-2.066,6.035-5.359,6.94c-3.215,0.888-6.004,0.138-8.211-2.29
	c-2.949-3.25-1.992-8.082,1.871-10.188c1.184-0.646,2.449-0.935,3.77-1.03c1.078-0.086,2.014,0.508,2.324,1.405
	c0.273,0.785,0.004,1.677-0.77,2.109c-0.449,0.25-1.014,0.369-1.535,0.413c-1.168,0.095-2.105,0.56-2.729,1.538
	c-0.947,1.51-0.232,3.514,1.539,4.165c1.188,0.435,2.41,0.41,3.523-0.323c0.895-0.592,1.371-1.41,1.371-2.492
	c-0.004-3.345-0.004-6.684,0-10.022c0-0.97,0.492-1.743,1.387-2.043c0.836-0.277,1.656-0.129,2.234,0.554
	c0.297,0.349,0.539,0.864,0.555,1.31C101.18,6.998,101.145,8.802,101.145,10.611"/>
<path fill="#47D4D4" d="M40.742,22.479c-2.765-0.021-4.75-0.846-6.308-2.531c-2.981-3.229-2.082-8.077,1.861-10.305
	c2.828-1.598,6.764-1.242,9.25,0.836c3.682,3.074,3.168,8.396-1.059,10.858C43.199,22.088,41.816,22.553,40.742,22.479
	L40.742,22.479z M40.27,18.447c0.25,0,0.5,0.017,0.746-0.004c1.211-0.104,2.328-1.043,2.646-2.215
	c0.313-1.156-0.104-2.272-1.168-3.017c-1.104-0.771-2.328-0.879-3.562-0.415c-1.571,0.582-2.282,1.967-1.899,3.506
	C37.355,17.596,38.648,18.459,40.27,18.447L40.27,18.447z"/>
<path fill="#47D4D4" d="M84.539,17.311c0,1.039,0.012,2.078,0,3.117c-0.016,1.116-0.91,2-2.043,2.022
	c-1.199,0.022-2.125-0.772-2.156-1.935c-0.055-1.918-0.094-3.84-0.082-5.759c0.01-0.944-0.332-1.651-1.189-2.012
	c-0.941-0.388-1.918-0.319-2.66,0.414c-0.328,0.323-0.543,0.901-0.559,1.37c-0.063,1.919-0.021,3.841-0.031,5.759
	c-0.004,0.987-0.521,1.681-1.48,2.063c-0.723,0.285-1.688,0.043-2.262-0.668c-0.254-0.32-0.488-0.758-0.496-1.147
	c-0.043-2.168-0.133-4.345,0.027-6.5c0.184-2.552,2.021-4.478,4.604-5.157c3.146-0.832,6.553,0.579,7.793,3.302
	c0.311,0.68,0.445,1.469,0.514,2.219c0.086,0.961,0.02,1.938,0.02,2.91L84.539,17.311"/>
<path fill="#47D4D4" d="M22.711,17.248c0.063-1.328-0.016-2.681,0.229-3.974c0.521-2.828,3.878-5.039,6.726-4.578
	c0.953,0.156,1.649,0.931,1.664,1.852c0.018,1.023-0.562,1.724-1.617,1.938c-0.219,0.048-0.453,0.039-0.676,0.074
	c-1.449,0.215-2.012,0.91-1.992,2.367c0.023,1.758,0.014,3.52,0,5.276c-0.004,0.909-0.387,1.577-1.236,2.004
	c-0.785,0.396-1.479,0.271-2.164-0.188c-0.567-0.379-0.864-0.91-0.868-1.594c-0.003-1.06,0-2.117,0-3.181
	C22.754,17.248,22.73,17.248,22.711,17.248"/>
<path fill="#47D4D4" d="M70.23,15.518c0,1.56,0.008,3.115,0,4.676c-0.008,1.31-0.896,2.242-2.121,2.25
	c-1.207,0.013-2.156-0.926-2.164-2.215c-0.021-3.142-0.016-6.276,0-9.418c0.008-1.358,0.883-2.164,2.262-2.141
	c1.332,0.022,2.021,0.753,2.023,2.176C70.234,12.4,70.23,13.959,70.23,15.518"/>
<path fill="#47D4D4" d="M71.5,3.775c0,1.935-1.568,3.5-3.512,3.5s-3.512-1.565-3.512-3.5c0-1.93,1.568-3.496,3.512-3.496
	S71.5,1.845,71.5,3.775"/>
<path fill="none" stroke="#FFFFFF" stroke-width="0.4" d="M68.781,3.775c0,0.438-0.355,0.793-0.793,0.793
	c-0.438,0-0.793-0.354-0.793-0.793c0-0.434,0.354-0.789,0.793-0.789C68.426,2.986,68.781,3.342,68.781,3.775L68.781,3.775z
	 M68.367,3.115L69.004,1.9L68.367,3.115z"/>
<path fill="#47D4D4" d="M48.289,36.638l-0.969-2.694h-3.71l-0.949,2.694h-1.672l3.63-9.743h1.728l3.631,9.743H48.289z
	 M46.902,32.576l-0.909-2.643c-0.064-0.178-0.158-0.456-0.276-0.837c-0.115-0.382-0.195-0.659-0.24-0.836
	c-0.12,0.544-0.294,1.14-0.524,1.785l-0.876,2.528L46.902,32.576L46.902,32.576z"/>
<path fill="#47D4D4" d="M54.05,36.771c-1.107,0-1.952-0.323-2.53-0.973c-0.577-0.647-0.866-1.578-0.866-2.792
	c0-1.232,0.302-2.184,0.906-2.847c0.604-0.664,1.477-0.996,2.616-0.996c0.775,0,1.475,0.146,2.093,0.434l-0.474,1.254
	c-0.656-0.257-1.202-0.386-1.632-0.386c-1.27,0-1.905,0.843-1.905,2.529c0,0.821,0.158,1.439,0.478,1.854
	c0.313,0.414,0.778,0.621,1.39,0.621c0.695,0,1.354-0.174,1.974-0.519v1.36c-0.279,0.163-0.577,0.279-0.895,0.352
	C54.886,36.735,54.502,36.771,54.05,36.771z"/>
<path fill="#47D4D4" d="M62.413,36.638l-0.312-1.021h-0.055c-0.354,0.446-0.711,0.751-1.067,0.911
	c-0.358,0.162-0.818,0.242-1.381,0.242c-0.724,0-1.284-0.194-1.688-0.584c-0.405-0.39-0.605-0.939-0.605-1.651
	c0-0.759,0.278-1.327,0.843-1.714c0.562-0.384,1.418-0.595,2.566-0.63l1.27-0.04v-0.394c0-0.469-0.109-0.817-0.328-1.052
	c-0.22-0.23-0.559-0.349-1.021-0.349c-0.376,0-0.733,0.056-1.079,0.166c-0.347,0.109-0.68,0.241-0.996,0.393l-0.505-1.114
	c0.396-0.208,0.835-0.366,1.309-0.476c0.473-0.107,0.92-0.163,1.34-0.163c0.935,0,1.639,0.204,2.114,0.61
	c0.475,0.407,0.714,1.046,0.714,1.918v4.944L62.413,36.638L62.413,36.638z M60.09,35.576c0.565,0,1.021-0.158,1.364-0.476
	c0.343-0.316,0.517-0.761,0.517-1.331v-0.638l-0.943,0.04c-0.734,0.025-1.271,0.147-1.604,0.368
	c-0.334,0.219-0.501,0.555-0.501,1.005c0,0.328,0.1,0.581,0.292,0.762C59.408,35.486,59.7,35.576,60.09,35.576z"/>
<path fill="#47D4D4" d="M68.181,36.771c-0.916,0-1.633-0.332-2.146-0.995c-0.513-0.664-0.771-1.596-0.771-2.795
	c0-1.203,0.26-2.142,0.778-2.812c0.521-0.671,1.239-1.006,2.161-1.006c0.964,0,1.699,0.355,2.203,1.068h0.08
	c-0.076-0.525-0.113-0.942-0.113-1.247V26.31h1.566v10.327h-1.222l-0.272-0.963h-0.072C69.878,36.405,69.146,36.771,68.181,36.771z
	 M68.599,35.51c0.643,0,1.106-0.182,1.398-0.541c0.292-0.36,0.442-0.946,0.451-1.757v-0.218c0-0.927-0.15-1.583-0.451-1.974
	c-0.301-0.39-0.771-0.584-1.413-0.584c-0.55,0-0.972,0.224-1.269,0.667c-0.296,0.444-0.444,1.078-0.444,1.9
	c0,0.813,0.146,1.437,0.434,1.862C67.592,35.296,68.023,35.51,68.599,35.51z"/>
<path fill="#47D4D4" d="M77.379,36.771c-1.142,0-2.032-0.333-2.677-0.998c-0.645-0.666-0.966-1.583-0.966-2.751
	c0-1.2,0.298-2.144,0.896-2.829s1.417-1.027,2.464-1.027c0.969,0,1.732,0.295,2.296,0.884c0.562,0.589,0.843,1.396,0.843,2.429
	v0.844h-4.894c0.021,0.714,0.217,1.261,0.577,1.644c0.363,0.385,0.874,0.574,1.534,0.574c0.433,0,0.837-0.041,1.211-0.122
	c0.373-0.082,0.775-0.22,1.204-0.408v1.268c-0.381,0.183-0.766,0.312-1.154,0.387C78.325,36.732,77.88,36.771,77.379,36.771z
	 M77.095,30.346c-0.496,0-0.895,0.156-1.192,0.472c-0.298,0.313-0.476,0.771-0.534,1.374H78.7c-0.009-0.605-0.155-1.064-0.438-1.378
	C77.979,30.502,77.59,30.346,77.095,30.346z"/>
<path fill="#47D4D4" d="M88.191,36.638h-1.566v-4.526c0-0.563-0.104-0.98-0.316-1.258c-0.212-0.276-0.544-0.415-0.995-0.415
	c-0.604,0-1.044,0.196-1.325,0.588c-0.28,0.393-0.42,1.043-0.42,1.954v3.657h-1.563v-7.342h1.223l0.219,0.964h0.08
	c0.204-0.351,0.499-0.619,0.886-0.813c0.388-0.188,0.813-0.284,1.278-0.284c1.128,0,1.876,0.386,2.243,1.154h0.104
	c0.218-0.361,0.523-0.646,0.917-0.85c0.396-0.204,0.845-0.307,1.354-0.307c0.876,0,1.514,0.222,1.914,0.664
	c0.398,0.441,0.601,1.116,0.601,2.024v4.783h-1.56V32.11c0-0.563-0.107-0.98-0.322-1.258c-0.215-0.276-0.547-0.415-0.999-0.415
	c-0.606,0-1.049,0.188-1.33,0.567c-0.28,0.378-0.422,0.959-0.422,1.742V36.638z"/>
<path fill="#47D4D4" d="M93.886,29.297h1.697l1.493,4.161c0.229,0.595,0.377,1.15,0.451,1.673h0.054
	c0.04-0.242,0.113-0.537,0.221-0.886c0.104-0.348,0.668-1.997,1.687-4.948h1.686l-3.14,8.316c-0.57,1.525-1.521,2.289-2.854,2.289
	c-0.347,0-0.684-0.038-1.011-0.111v-1.234c0.234,0.053,0.502,0.079,0.805,0.079c0.753,0,1.278-0.436,1.587-1.308l0.271-0.689
	L93.886,29.297z"/>
</svg>
