<?xml version="1.0" encoding="utf-8"?>
<!-- Generator: Adobe Illustrator 16.0.0, SVG Export Plug-In . SVG Version: 6.00 Build 0)  -->
<!DOCTYPE svg PUBLIC "-//W3C//DTD SVG 1.1//EN" "http://www.w3.org/Graphics/SVG/1.1/DTD/svg11.dtd">
<svg version="1.1" id="Layer_1" xmlns="http://www.w3.org/2000/svg" xmlns:xlink="http://www.w3.org/1999/xlink" x="0px" y="0px"
	 width="101.154px" height="39.903px" viewBox="0 0 101.154 39.903" enable-background="new 0 0 101.154 39.903"
	 xml:space="preserve">
<g>
	<g>
		<defs>
			<rect id="SVGID_1_" y="-0.313" width="101.76" height="23.76"/>
		</defs>
		<clipPath id="SVGID_2_">
			<use xlink:href="#SVGID_1_"  overflow="visible"/>
		</clipPath>
		<path clip-path="url(#SVGID_2_)" fill-rule="evenodd" clip-rule="evenodd" fill="#FFFFFF" d="M10.805,22.475
			c-3.934-0.109-7.149-1.625-9.328-4.97c-1.122-1.718-1.735-3.675-1.375-5.726C0.52,9.417,1.652,7.392,3.551,5.81
			c5.187-4.328,13.465-3.094,16.82,2.738c2.137,3.715,1.18,8.417-2.242,11.301C16.5,21.225,13.609,22.58,10.805,22.475
			L10.805,22.475z M10.793,18.455c0.008,0.055,0.02,0.109,0.027,0.164c0.942-0.207,1.93-0.293,2.817-0.633
			c3.863-1.481,4.816-6.316,1.898-9.094c-2.273-2.164-6.64-2.137-8.844-0.508c-2.918,2.161-3.136,6.161-0.41,8.551
			C7.566,18.064,9.074,18.576,10.793,18.455L10.793,18.455z M10.793,18.455"/>
		<path clip-path="url(#SVGID_2_)" fill-rule="evenodd" clip-rule="evenodd" fill="#FFFFFF" d="M53.621,10.607
			c0,1.578,0,3.16,0,4.738c0.004,1.445,0.637,2.414,1.996,2.902c0.965,0.343,1.969,0.336,2.918-0.078
			c1.426-0.617,2.051-1.793,1.801-3.273c-0.207-1.211-1.5-2.27-2.891-2.363c-0.34-0.023-0.688-0.004-1.012-0.086
			c-1.023-0.254-1.629-1.105-1.539-2.098c0.086-0.933,0.938-1.754,2.02-1.761c4.438-0.028,7.922,3.203,7.734,7.164
			c-0.133,2.773-1.688,4.641-4.105,5.852c-3.805,1.91-8.266,0.375-10.238-2.742c-0.641-1.016-0.973-2.129-0.973-3.332
			c-0.008-3.34-0.004-6.684,0-10.024c0-1.351,0.883-2.273,2.148-2.269c1.273,0.004,2.133,0.914,2.141,2.289
			C53.629,7.22,53.621,8.912,53.621,10.607"/>
	</g>
	<path fill-rule="evenodd" clip-rule="evenodd" fill="#FFFFFF" d="M101.145,10.611v4.535c0,3.391-2.066,6.035-5.359,6.941
		c-3.215,0.887-6.004,0.137-8.211-2.29c-2.949-3.25-1.992-8.082,1.871-10.187c1.184-0.645,2.449-0.934,3.77-1.031
		c1.078-0.086,2.012,0.508,2.324,1.406c0.273,0.785,0.004,1.676-0.77,2.109c-0.449,0.25-1.012,0.37-1.535,0.414
		c-1.168,0.094-2.105,0.559-2.727,1.538c-0.949,1.509-0.234,3.513,1.539,4.165c1.188,0.434,2.41,0.41,3.523-0.324
		c0.895-0.591,1.371-1.41,1.371-2.492c-0.004-3.344-0.004-6.683,0-10.023c0-0.969,0.492-1.743,1.387-2.043
		c0.836-0.278,1.656-0.129,2.234,0.554c0.297,0.348,0.539,0.864,0.555,1.309C101.18,6.998,101.145,8.802,101.145,10.611"/>
	<path fill-rule="evenodd" clip-rule="evenodd" fill="#FFFFFF" d="M40.742,22.479c-2.765-0.02-4.75-0.845-6.308-2.531
		c-2.981-3.231-2.082-8.078,1.863-10.305c2.828-1.597,6.762-1.242,9.25,0.836c3.68,3.074,3.168,8.395-1.059,10.859
		C43.199,22.088,41.816,22.553,40.742,22.479L40.742,22.479z M40.27,18.447c0.25,0,0.5,0.016,0.746-0.004
		c1.211-0.103,2.328-1.043,2.648-2.215c0.313-1.156-0.105-2.273-1.168-3.016c-1.105-0.77-2.328-0.879-3.562-0.415
		c-1.571,0.582-2.282,1.966-1.899,3.505C37.355,17.596,38.648,18.459,40.27,18.447L40.27,18.447z M40.27,18.447"/>
	<path fill-rule="evenodd" clip-rule="evenodd" fill="#FFFFFF" d="M84.539,17.311c0,1.039,0.012,2.078,0,3.117
		c-0.016,1.117-0.91,2-2.043,2.023c-1.199,0.023-2.125-0.773-2.156-1.934c-0.055-1.918-0.094-3.84-0.082-5.758
		c0.008-0.945-0.332-1.652-1.191-2.012c-0.941-0.387-1.918-0.32-2.66,0.414c-0.328,0.324-0.543,0.902-0.559,1.371
		c-0.063,1.918-0.02,3.84-0.031,5.758c-0.004,0.988-0.52,1.68-1.48,2.063c-0.723,0.285-1.688,0.043-2.262-0.668
		c-0.254-0.32-0.488-0.758-0.496-1.148c-0.043-2.168-0.133-4.344,0.027-6.5c0.184-2.551,2.023-4.477,4.605-5.157
		c3.145-0.832,6.551,0.579,7.793,3.301c0.309,0.68,0.445,1.469,0.512,2.219c0.086,0.961,0.02,1.938,0.02,2.91H84.539"/>
	<path fill-rule="evenodd" clip-rule="evenodd" fill="#FFFFFF" d="M22.711,17.248c0.062-1.328-0.016-2.68,0.227-3.973
		c0.523-2.828,3.878-5.039,6.726-4.578c0.953,0.156,1.649,0.93,1.664,1.851c0.016,1.024-0.562,1.723-1.617,1.938
		c-0.219,0.047-0.453,0.039-0.676,0.074c-1.449,0.215-2.012,0.91-1.992,2.367c0.023,1.758,0.012,3.52,0,5.277
		c-0.004,0.91-0.387,1.578-1.238,2.004c-0.785,0.395-1.477,0.27-2.164-0.188c-0.567-0.379-0.864-0.91-0.868-1.594
		c-0.003-1.059,0-2.117,0-3.18C22.754,17.248,22.73,17.248,22.711,17.248"/>
	<path fill-rule="evenodd" clip-rule="evenodd" fill="#FFFFFF" d="M70.23,15.518c0,1.559,0.008,3.116,0,4.676
		c-0.008,1.309-0.895,2.242-2.121,2.25c-1.207,0.012-2.156-0.926-2.164-2.215c-0.02-3.141-0.016-6.277,0-9.418
		c0.008-1.359,0.883-2.164,2.262-2.14c1.332,0.023,2.02,0.753,2.023,2.175C70.234,12.4,70.23,13.959,70.23,15.518"/>
	<path fill-rule="evenodd" clip-rule="evenodd" fill="#FFFFFF" d="M71.5,3.775c0,1.934-1.57,3.5-3.512,3.5s-3.512-1.566-3.512-3.5
		c0-1.93,1.57-3.496,3.512-3.496S71.5,1.845,71.5,3.775"/>
	<path fill="none" stroke="#17C9A7" stroke-width="0.4" d="M68.781,3.775c0,0.438-0.355,0.793-0.793,0.793s-0.793-0.355-0.793-0.793
		c0-0.433,0.355-0.789,0.793-0.789S68.781,3.342,68.781,3.775L68.781,3.775z M68.367,3.115L69.004,1.9L68.367,3.115z M68.367,3.115"
		/>
</g>
<g>
	<path fill="#FFFFFF" d="M48.289,36.638l-0.969-2.694h-3.71l-0.949,2.694h-1.672l3.63-9.743h1.726l3.631,9.743H48.289z
		 M46.902,32.576l-0.909-2.642c-0.066-0.177-0.158-0.456-0.276-0.837c-0.117-0.381-0.197-0.659-0.242-0.836
		c-0.12,0.544-0.294,1.14-0.524,1.786l-0.876,2.528H46.902z"/>
	<path fill="#FFFFFF" d="M54.05,36.771c-1.109,0-1.954-0.323-2.532-0.972c-0.577-0.648-0.866-1.579-0.866-2.792
		c0-1.233,0.302-2.183,0.906-2.847c0.604-0.664,1.477-0.996,2.618-0.996c0.775,0,1.473,0.145,2.091,0.433l-0.472,1.254
		c-0.658-0.257-1.202-0.385-1.632-0.385c-1.27,0-1.905,0.842-1.905,2.529c0,0.822,0.158,1.44,0.476,1.854
		c0.315,0.414,0.778,0.621,1.39,0.621c0.695,0,1.352-0.173,1.972-0.518v1.361c-0.279,0.163-0.577,0.28-0.893,0.351
		C54.886,36.735,54.502,36.771,54.05,36.771z"/>
	<path fill="#FFFFFF" d="M62.413,36.638l-0.312-1.021h-0.053c-0.354,0.447-0.711,0.751-1.069,0.912
		c-0.358,0.162-0.818,0.242-1.381,0.242c-0.722,0-1.284-0.195-1.688-0.584c-0.405-0.389-0.607-0.94-0.607-1.652
		c0-0.758,0.28-1.327,0.843-1.713c0.562-0.384,1.418-0.595,2.568-0.63l1.268-0.04v-0.393c0-0.469-0.109-0.818-0.328-1.052
		c-0.22-0.231-0.559-0.348-1.02-0.348c-0.376,0-0.735,0.055-1.081,0.166c-0.345,0.11-0.678,0.241-0.996,0.392l-0.505-1.115
		c0.398-0.208,0.835-0.366,1.309-0.475c0.473-0.108,0.92-0.163,1.34-0.163c0.934,0,1.639,0.204,2.114,0.611s0.714,1.046,0.714,1.918
		v4.944H62.413z M60.09,35.576c0.565,0,1.021-0.158,1.364-0.475c0.343-0.317,0.515-0.76,0.515-1.331v-0.637l-0.943,0.04
		c-0.734,0.026-1.269,0.148-1.603,0.368c-0.334,0.219-0.501,0.554-0.501,1.005c0,0.328,0.098,0.581,0.292,0.761
		C59.408,35.486,59.7,35.576,60.09,35.576z"/>
	<path fill="#FFFFFF" d="M68.181,36.771c-0.916,0-1.631-0.332-2.144-0.995c-0.513-0.664-0.771-1.596-0.771-2.795
		c0-1.203,0.26-2.141,0.78-2.811c0.52-0.671,1.239-1.006,2.161-1.006c0.964,0,1.699,0.356,2.203,1.069h0.08
		c-0.076-0.526-0.113-0.943-0.113-1.247v-2.676h1.566v10.327h-1.222l-0.272-0.962h-0.072C69.878,36.405,69.146,36.771,68.181,36.771
		z M68.599,35.51c0.643,0,1.108-0.181,1.4-0.541s0.442-0.946,0.451-1.756v-0.218c0-0.926-0.15-1.583-0.451-1.973
		c-0.301-0.389-0.772-0.584-1.413-0.584c-0.55,0-0.972,0.223-1.269,0.667c-0.296,0.445-0.444,1.078-0.444,1.901
		c0,0.814,0.144,1.436,0.432,1.862C67.592,35.296,68.023,35.51,68.599,35.51z"/>
	<path fill="#FFFFFF" d="M77.379,36.771c-1.142,0-2.034-0.333-2.677-0.998c-0.645-0.666-0.966-1.583-0.966-2.751
		c0-1.2,0.298-2.143,0.896-2.829c0.596-0.685,1.417-1.028,2.462-1.028c0.969,0,1.734,0.295,2.296,0.884
		c0.562,0.588,0.843,1.397,0.843,2.428v0.844h-4.892c0.021,0.713,0.215,1.26,0.577,1.643c0.363,0.384,0.874,0.574,1.534,0.574
		c0.433,0,0.837-0.041,1.211-0.122c0.373-0.082,0.775-0.219,1.204-0.409v1.268c-0.381,0.182-0.766,0.311-1.154,0.386
		C78.325,36.732,77.88,36.771,77.379,36.771z M77.095,30.346c-0.496,0-0.893,0.157-1.192,0.472
		c-0.298,0.313-0.476,0.772-0.534,1.374H78.7c-0.009-0.606-0.155-1.065-0.438-1.378C77.979,30.502,77.59,30.346,77.095,30.346z"/>
	<path fill="#FFFFFF" d="M88.191,36.638h-1.566v-4.526c0-0.562-0.106-0.981-0.318-1.258s-0.544-0.415-0.995-0.415
		c-0.602,0-1.044,0.196-1.325,0.588c-0.28,0.392-0.42,1.043-0.42,1.954v3.657h-1.561v-7.341h1.221l0.219,0.963h0.08
		c0.204-0.35,0.499-0.619,0.886-0.811c0.388-0.189,0.813-0.285,1.278-0.285c1.128,0,1.876,0.386,2.243,1.155h0.105
		c0.218-0.362,0.523-0.646,0.917-0.85s0.845-0.306,1.354-0.306c0.876,0,1.514,0.222,1.914,0.664s0.601,1.117,0.601,2.025v4.784
		h-1.56v-4.526c0-0.562-0.107-0.981-0.322-1.258s-0.547-0.415-0.999-0.415c-0.606,0-1.049,0.189-1.33,0.568
		c-0.28,0.378-0.422,0.959-0.422,1.742V36.638z"/>
	<path fill="#FFFFFF" d="M93.886,29.297h1.699l1.493,4.161c0.227,0.594,0.377,1.151,0.451,1.673h0.054
		c0.04-0.243,0.113-0.538,0.219-0.886c0.106-0.347,0.668-1.997,1.687-4.948h1.686l-3.14,8.317c-0.57,1.525-1.521,2.289-2.854,2.289
		c-0.345,0-0.682-0.038-1.009-0.112v-1.235c0.234,0.053,0.502,0.079,0.803,0.079c0.753,0,1.28-0.435,1.587-1.307l0.271-0.69
		L93.886,29.297z"/>
</g>
</svg>
