<?xml version="1.0" encoding="utf-8"?>
<!-- Generator: Adobe Illustrator 16.0.0, SVG Export Plug-In . SVG Version: 6.00 Build 0)  -->
<!DOCTYPE svg PUBLIC "-//W3C//DTD SVG 1.1//EN" "http://www.w3.org/Graphics/SVG/1.1/DTD/svg11.dtd">
<svg version="1.1" id="Layer_1" xmlns="http://www.w3.org/2000/svg" xmlns:xlink="http://www.w3.org/1999/xlink" x="0px" y="0px"
	 width="101.154px" height="39.902px" viewBox="0 0 101.154 39.902" enable-background="new 0 0 101.154 39.902"
	 xml:space="preserve">
<path fill="#17C9A7" d="M10.805,22.475c-3.935-0.108-7.149-1.625-9.328-4.97c-1.122-1.718-1.735-3.675-1.375-5.727
	C0.52,9.417,1.652,7.392,3.551,5.81c5.188-4.328,13.466-3.094,16.82,2.738c2.137,3.715,1.18,8.417-2.242,11.301
	C16.5,21.225,13.609,22.58,10.805,22.475L10.805,22.475z M10.793,18.455c0.008,0.055,0.021,0.108,0.027,0.164
	c0.942-0.207,1.93-0.293,2.817-0.634c3.862-1.48,4.815-6.315,1.897-9.094c-2.272-2.164-6.64-2.137-8.844-0.508
	c-2.918,2.161-3.136,6.161-0.41,8.551C7.566,18.064,9.074,18.576,10.793,18.455L10.793,18.455z"/>
<path fill="#17C9A7" d="M53.621,10.607c0,1.578,0,3.16,0,4.738c0.004,1.445,0.637,2.414,1.996,2.902
	c0.965,0.343,1.969,0.336,2.918-0.078c1.426-0.617,2.051-1.793,1.801-3.273c-0.207-1.211-1.5-2.27-2.891-2.362
	c-0.34-0.023-0.688-0.005-1.012-0.087c-1.023-0.254-1.629-1.104-1.539-2.098c0.086-0.933,0.938-1.754,2.02-1.761
	c4.438-0.028,7.922,3.203,7.734,7.164c-0.133,2.772-1.688,4.641-4.105,5.852c-3.805,1.91-8.266,0.375-10.237-2.742
	c-0.642-1.016-0.974-2.129-0.974-3.332c-0.008-3.34-0.004-6.684,0-10.023c0-1.352,0.883-2.273,2.148-2.27
	c1.272,0.005,2.133,0.914,2.141,2.289C53.629,7.22,53.621,8.912,53.621,10.607"/>
<path fill="#17C9A7" d="M101.145,10.611v4.535c0,3.392-2.066,6.035-5.359,6.941c-3.215,0.887-6.004,0.137-8.211-2.29
	c-2.949-3.25-1.992-8.082,1.871-10.188c1.184-0.645,2.449-0.934,3.77-1.03c1.078-0.086,2.013,0.508,2.324,1.405
	c0.273,0.785,0.004,1.677-0.77,2.109c-0.449,0.25-1.013,0.37-1.535,0.414c-1.168,0.094-2.105,0.559-2.728,1.538
	c-0.948,1.509-0.233,3.513,1.539,4.165c1.188,0.434,2.41,0.41,3.523-0.324c0.895-0.591,1.371-1.41,1.371-2.492
	c-0.004-3.344-0.004-6.683,0-10.022c0-0.97,0.492-1.743,1.387-2.043c0.836-0.278,1.656-0.129,2.234,0.554
	c0.297,0.348,0.539,0.864,0.555,1.309C101.18,6.998,101.145,8.802,101.145,10.611"/>
<path fill="#17C9A7" d="M40.742,22.479c-2.765-0.02-4.75-0.845-6.308-2.531c-2.981-3.23-2.082-8.077,1.862-10.305
	c2.828-1.597,6.763-1.242,9.25,0.836c3.681,3.074,3.168,8.396-1.059,10.859C43.199,22.088,41.816,22.553,40.742,22.479
	L40.742,22.479z M40.27,18.447c0.25,0,0.5,0.017,0.746-0.004c1.211-0.103,2.328-1.043,2.647-2.215
	c0.313-1.156-0.104-2.272-1.168-3.016c-1.104-0.771-2.328-0.879-3.562-0.415c-1.571,0.582-2.282,1.966-1.899,3.505
	C37.355,17.596,38.648,18.459,40.27,18.447L40.27,18.447z"/>
<path fill="#17C9A7" d="M84.539,17.311c0,1.039,0.012,2.078,0,3.117c-0.016,1.117-0.91,2-2.043,2.023
	c-1.199,0.022-2.125-0.773-2.156-1.935c-0.055-1.918-0.094-3.84-0.082-5.758c0.009-0.945-0.332-1.652-1.19-2.012
	c-0.941-0.388-1.918-0.32-2.66,0.414c-0.328,0.323-0.543,0.901-0.559,1.37c-0.063,1.919-0.021,3.841-0.031,5.759
	c-0.004,0.987-0.521,1.68-1.48,2.063c-0.723,0.285-1.688,0.043-2.262-0.668c-0.254-0.32-0.488-0.758-0.496-1.147
	c-0.043-2.168-0.133-4.345,0.027-6.5c0.184-2.552,2.022-4.478,4.604-5.157c3.146-0.832,6.552,0.579,7.793,3.301
	c0.31,0.68,0.445,1.469,0.513,2.219c0.086,0.961,0.02,1.938,0.02,2.91L84.539,17.311"/>
<path fill="#17C9A7" d="M22.711,17.248c0.063-1.328-0.016-2.681,0.228-3.974c0.522-2.828,3.878-5.039,6.726-4.578
	c0.953,0.156,1.649,0.931,1.664,1.852c0.017,1.023-0.562,1.723-1.617,1.938c-0.219,0.048-0.453,0.039-0.676,0.074
	c-1.449,0.215-2.012,0.91-1.992,2.367c0.023,1.758,0.013,3.52,0,5.277c-0.004,0.909-0.387,1.577-1.237,2.004
	c-0.785,0.395-1.478,0.27-2.164-0.188c-0.567-0.379-0.864-0.91-0.868-1.594c-0.003-1.059,0-2.117,0-3.18
	C22.754,17.248,22.73,17.248,22.711,17.248"/>
<path fill="#17C9A7" d="M70.23,15.518c0,1.56,0.008,3.116,0,4.676c-0.008,1.31-0.896,2.242-2.121,2.25
	c-1.207,0.013-2.156-0.926-2.164-2.215c-0.021-3.141-0.016-6.276,0-9.418c0.008-1.358,0.883-2.164,2.262-2.14
	c1.332,0.022,2.021,0.753,2.023,2.175C70.234,12.4,70.23,13.959,70.23,15.518"/>
<path fill="#17C9A7" d="M71.5,3.775c0,1.935-1.569,3.5-3.512,3.5s-3.512-1.565-3.512-3.5c0-1.93,1.569-3.496,3.512-3.496
	S71.5,1.845,71.5,3.775"/>
<path fill="none" stroke="#FFFFFF" stroke-width="0.4" d="M68.781,3.775c0,0.438-0.355,0.793-0.793,0.793
	c-0.438,0-0.793-0.354-0.793-0.793c0-0.433,0.354-0.789,0.793-0.789C68.426,2.986,68.781,3.342,68.781,3.775L68.781,3.775z
	 M68.367,3.115L69.004,1.9L68.367,3.115z"/>
<path fill="#17C9A7" d="M48.289,36.638l-0.969-2.694h-3.71l-0.949,2.694h-1.672l3.63-9.743h1.727l3.631,9.743H48.289z
	 M46.902,32.576l-0.909-2.643c-0.065-0.177-0.158-0.456-0.276-0.837c-0.116-0.381-0.196-0.659-0.241-0.836
	c-0.12,0.544-0.294,1.14-0.524,1.786l-0.876,2.528L46.902,32.576L46.902,32.576z"/>
<path fill="#17C9A7" d="M54.05,36.771c-1.108,0-1.953-0.323-2.531-0.972c-0.577-0.648-0.866-1.579-0.866-2.792
	c0-1.233,0.302-2.184,0.906-2.847c0.604-0.664,1.477-0.996,2.617-0.996c0.775,0,1.474,0.145,2.092,0.433l-0.473,1.254
	c-0.657-0.257-1.202-0.385-1.632-0.385c-1.27,0-1.905,0.842-1.905,2.529c0,0.821,0.158,1.439,0.477,1.854
	c0.314,0.414,0.778,0.621,1.39,0.621c0.695,0,1.353-0.173,1.973-0.518v1.36c-0.279,0.163-0.577,0.28-0.894,0.352
	C54.886,36.735,54.502,36.771,54.05,36.771z"/>
<path fill="#17C9A7" d="M62.413,36.638l-0.312-1.021h-0.054c-0.354,0.446-0.711,0.751-1.068,0.911
	c-0.358,0.162-0.818,0.242-1.381,0.242c-0.723,0-1.284-0.194-1.688-0.584c-0.405-0.389-0.606-0.939-0.606-1.651
	c0-0.759,0.279-1.327,0.843-1.714c0.562-0.384,1.418-0.595,2.567-0.63l1.269-0.04v-0.393c0-0.469-0.109-0.818-0.328-1.052
	c-0.22-0.231-0.559-0.349-1.021-0.349c-0.376,0-0.734,0.056-1.08,0.166s-0.679,0.241-0.996,0.393l-0.505-1.115
	c0.397-0.208,0.835-0.366,1.309-0.475c0.473-0.108,0.92-0.163,1.34-0.163c0.934,0,1.639,0.204,2.114,0.61
	c0.475,0.407,0.714,1.046,0.714,1.918v4.944L62.413,36.638L62.413,36.638z M60.09,35.576c0.565,0,1.021-0.158,1.364-0.476
	c0.343-0.316,0.516-0.76,0.516-1.331v-0.637l-0.943,0.04c-0.734,0.025-1.27,0.147-1.604,0.368c-0.334,0.219-0.501,0.554-0.501,1.005
	c0,0.328,0.099,0.581,0.292,0.761C59.408,35.486,59.7,35.576,60.09,35.576z"/>
<path fill="#17C9A7" d="M68.181,36.771c-0.916,0-1.632-0.332-2.145-0.995c-0.513-0.664-0.771-1.596-0.771-2.795
	c0-1.203,0.26-2.141,0.779-2.811c0.521-0.671,1.239-1.006,2.161-1.006c0.964,0,1.699,0.355,2.203,1.068h0.08
	c-0.076-0.525-0.113-0.942-0.113-1.247V26.31h1.566v10.327h-1.222l-0.272-0.962h-0.072C69.878,36.405,69.146,36.771,68.181,36.771z
	 M68.599,35.51c0.643,0,1.107-0.181,1.399-0.541s0.442-0.946,0.451-1.756v-0.218c0-0.927-0.15-1.583-0.451-1.974
	c-0.301-0.389-0.771-0.584-1.413-0.584c-0.55,0-0.972,0.224-1.269,0.667c-0.296,0.445-0.444,1.078-0.444,1.901
	c0,0.813,0.145,1.436,0.433,1.862C67.592,35.296,68.023,35.51,68.599,35.51z"/>
<path fill="#17C9A7" d="M77.379,36.771c-1.142,0-2.033-0.333-2.677-0.998c-0.645-0.666-0.966-1.583-0.966-2.751
	c0-1.2,0.298-2.143,0.896-2.829c0.597-0.685,1.417-1.027,2.463-1.027c0.969,0,1.733,0.295,2.296,0.884
	c0.562,0.588,0.843,1.396,0.843,2.428v0.844h-4.893c0.021,0.714,0.216,1.261,0.577,1.644c0.363,0.384,0.874,0.574,1.534,0.574
	c0.433,0,0.837-0.041,1.211-0.122c0.373-0.082,0.775-0.22,1.204-0.409v1.268c-0.381,0.183-0.766,0.312-1.154,0.387
	C78.325,36.732,77.88,36.771,77.379,36.771z M77.095,30.346c-0.496,0-0.894,0.157-1.192,0.472c-0.298,0.313-0.476,0.772-0.534,1.374
	H78.7c-0.009-0.605-0.155-1.064-0.438-1.378C77.979,30.502,77.59,30.346,77.095,30.346z"/>
<path fill="#17C9A7" d="M88.191,36.638h-1.566v-4.526c0-0.562-0.105-0.98-0.317-1.258c-0.212-0.276-0.544-0.415-0.995-0.415
	c-0.603,0-1.044,0.196-1.325,0.588c-0.28,0.393-0.42,1.043-0.42,1.954v3.657h-1.562v-7.341h1.222l0.219,0.963h0.08
	c0.204-0.35,0.499-0.619,0.886-0.812c0.388-0.188,0.813-0.284,1.278-0.284c1.128,0,1.876,0.386,2.243,1.154h0.104
	c0.218-0.361,0.523-0.646,0.917-0.85c0.395-0.204,0.845-0.306,1.354-0.306c0.876,0,1.514,0.222,1.914,0.664
	c0.399,0.441,0.601,1.116,0.601,2.024v4.784h-1.56V32.11c0-0.562-0.107-0.98-0.322-1.258c-0.215-0.276-0.547-0.415-0.999-0.415
	c-0.606,0-1.049,0.189-1.33,0.568c-0.28,0.378-0.422,0.959-0.422,1.742V36.638z"/>
<path fill="#17C9A7" d="M93.886,29.297h1.698l1.493,4.161c0.228,0.594,0.377,1.15,0.451,1.673h0.054
	c0.04-0.243,0.113-0.538,0.22-0.886c0.105-0.348,0.668-1.997,1.687-4.948h1.686l-3.14,8.316c-0.57,1.525-1.521,2.289-2.854,2.289
	c-0.346,0-0.683-0.038-1.01-0.111v-1.235c0.234,0.053,0.502,0.079,0.804,0.079c0.753,0,1.279-0.435,1.587-1.307l0.271-0.69
	L93.886,29.297z"/>
</svg>
