<?xml version="1.0" encoding="UTF-8" standalone="no"?>
<svg width="20px" height="16px" viewBox="0 0 20 16" version="1.1" xmlns="http://www.w3.org/2000/svg" xmlns:xlink="http://www.w3.org/1999/xlink" xmlns:sketch="http://www.bohemiancoding.com/sketch/ns">
    <!-- Generator: bin/sketchtool 1.4 (305) - http://www.bohemiancoding.com/sketch -->
    <title>Twitter</title>
    <desc>Created with bin/sketchtool.</desc>
    <defs></defs>
    <g id="Page-1" stroke="none" stroke-width="1" fill="none" fill-rule="evenodd" sketch:type="MSPage">
        <g id="Free-Trial_Access" sketch:type="MSArtboardGroup" transform="translate(-957.000000, -771.000000)" fill="#4A4A4A">
            <g id="Footer" sketch:type="MSLayerGroup" transform="translate(0.000000, 761.000000)">
                <g id="Follow" transform="translate(875.000000, 9.000000)" sketch:type="MSShapeGroup">
                    <g id="Twitter" transform="translate(82.000000, 1.000000)">
                        <path d="M19.4239529,2.035381 C19.339,1.928181 19.2040029,1.87433846 19.0682735,1.89374118 C18.9877147,1.90514027 18.8859176,1.92502805 18.7540941,1.95364706 C18.6315471,1.98008326 18.4819029,2.01525068 18.3149265,2.05648145 C18.3788853,1.91096109 18.4328353,1.75961991 18.4809265,1.60173032 C18.5592882,1.342219 18.6244676,1.06621538 18.6920882,0.773476923 C18.7262647,0.626743891 18.6706059,0.473947511 18.5495235,0.382754751 C18.4281971,0.291804525 18.2651265,0.28040543 18.1318382,0.353165611 C17.5332618,0.681314027 17.0857941,0.889408145 16.6988676,1.02546968 C16.3724824,1.1399457 16.0866206,1.20518733 15.7719529,1.24957104 C15.4028471,0.903960181 14.9888235,0.638142986 14.5447735,0.456242534 C14.0436,0.249846154 13.5065412,0.14919457 12.9580088,0.14919457 C12.3018206,0.149437104 11.6290324,0.292532127 10.9716235,0.567808145 L10.9716235,0.567808145 C10.6520735,0.701686878 10.3549824,0.900322172 10.0862088,1.14285611 C9.68341471,1.50738462 9.34384706,1.9718371 9.10095,2.48964706 C8.85805294,3.00745701 8.71158235,3.5791095 8.71133824,4.15852308 C8.71133824,4.2193991 8.71353529,4.28051765 8.71646471,4.34115113 C8.70621176,4.33848326 8.69669118,4.33605792 8.68668235,4.33339005 C7.98875,4.14954932 6.9139,3.78574842 5.84710588,3.31304977 C5.40964706,3.11999276 4.80472353,2.7343638 4.21469118,2.2376543 C3.62295,1.7416724 3.04072941,1.13266968 2.61987059,0.499413575 C2.5564,0.40361267 2.45313824,0.341766516 2.33840294,0.330124887 C2.22366765,0.318483258 2.10966471,0.358743891 2.02812941,0.439750226 C1.84504118,0.620680543 1.69027059,0.788514027 1.55747059,0.95561991 C1.35875882,1.20591493 1.21131176,1.45912036 1.11171176,1.73488145 C1.01162353,2.01064253 0.959382353,2.30168326 0.927647059,2.63492489 C0.905920588,2.85975385 0.891517647,3.10156018 0.891517647,3.3511276 C0.892494118,3.90192217 0.960602941,4.49249231 1.19837353,5.02800724 C1.01723824,5.04959276 0.873208824,5.19535566 0.860514706,5.37919638 C0.850505882,5.523019 0.845623529,5.66368869 0.845623529,5.8016905 C0.844891176,7.04419186 1.24377941,8.05555837 1.86969706,8.75769412 C1.93072647,8.82657376 1.99444118,8.89084525 2.05962059,8.95390407 C2.05937647,8.95681448 2.05888824,8.95923982 2.05888824,8.96263529 C2.05815588,8.98761629 2.05791176,9.01211222 2.05791176,9.03685068 C2.05766765,9.51100452 2.18119118,9.9560543 2.3904,10.3496869 C2.70433529,10.9412271 3.20306765,11.4207167 3.77796471,11.7709357 C3.99010294,11.8997213 4.21298235,12.0108018 4.44245294,12.1039348 C3.47550294,12.4104977 2.67821471,12.4808326 2.02129412,12.4815602 C1.72957353,12.4815602 1.46495,12.4670081 1.22302941,12.4529412 C0.981108824,12.4381466 0.762135294,12.4223819 0.556344118,12.4223819 C0.507276471,12.4223819 0.459185294,12.4235946 0.411582353,12.4255348 C0.296114706,12.4308706 0.190411765,12.4864109 0.121570588,12.5780887 C0.0524852941,12.670009 0.0285617647,12.7861828 0.0556588235,12.8977484 C0.169417647,13.3578353 0.444538235,13.7762063 0.824385294,14.1458281 C1.39659706,14.6997756 2.21243824,15.1562244 3.19257059,15.4826751 C4.17245882,15.8076706 5.31785882,16 6.54747941,16 C8.34003529,16 10.3134824,15.5903602 12.1953853,14.5734154 C13.91495,13.6420851 15.3454794,12.1170317 16.20575,10.4168688 C16.5025971,9.82896652 16.8270294,9.06935023 17.0801794,8.26195475 C17.3328412,7.45431674 17.5164176,6.60229502 17.5169059,5.8152724 C17.5169059,5.54824253 17.4946912,5.28848869 17.4451353,5.0398914 C17.6628882,4.88442715 17.8572059,4.73308597 18.0329706,4.57980452 C18.3813265,4.27615204 18.6562029,3.96231312 18.8846971,3.60991131 C19.1136794,3.25702443 19.2967676,2.86969774 19.4791235,2.41227873 C19.5303882,2.28567602 19.5093941,2.142581 19.4239529,2.035381 L19.4239529,2.035381 Z M17.8027676,3.74330498 C17.5501059,4.0057267 17.2288471,4.26523801 16.7926088,4.56161448 C16.6546824,4.65547511 16.5931647,4.82743167 16.6415,4.98677647 C16.7132706,5.22373213 16.7484235,5.50531403 16.7484235,5.81551493 C16.7494,6.48272579 16.5848647,7.27581176 16.3466059,8.03518552 C16.1083471,8.79504434 15.7970971,9.52337376 15.5188029,10.0744109 C14.7322559,11.6348742 13.3944912,13.0575783 11.8287206,13.9025665 C10.0698529,14.8528145 8.22334706,15.2360181 6.54772353,15.2360181 C5.01612941,15.2367457 3.62856471,14.9136905 2.60205,14.4247421 C2.08867059,14.1807529 1.66634706,13.8960181 1.36168824,13.5993991 C1.22693529,13.4689158 1.11732647,13.3369774 1.0292,13.205524 C1.07680294,13.2089195 1.12513824,13.2115873 1.17591471,13.2147403 C1.42174118,13.2297774 1.70442941,13.245057 2.02105,13.245057 C2.98922059,13.2460271 4.2745,13.0975964 5.85687059,12.3763005 C6.01505882,12.3040253 6.10465,12.1366769 6.0756,11.9661756 C6.04703824,11.7959167 5.90789118,11.6661611 5.73456765,11.6491837 C5.38499118,11.6145014 5.02198824,11.5203982 4.67753824,11.3746353 C4.16098529,11.1568398 3.68861765,10.8223855 3.35564118,10.418809 C3.18890882,10.2172633 3.05659706,9.99874027 2.96627353,9.76760543 C2.94918529,9.72491946 2.93575882,9.68150588 2.92184412,9.63833484 C3.01875882,9.67641267 3.11591765,9.71158009 3.21356471,9.73922896 C3.52652353,9.82896652 3.81336176,9.8631638 4.17026176,9.86583167 C4.17319118,9.86655928 4.15,9.86922715 4.15,9.86922715 L4.15,9.93665158 L4.21249412,9.93665158 C4.42365588,9.93665158 4.59697941,9.73437828 4.59966471,9.52458643 C4.60259412,9.31527964 4.43390882,9.12440543 4.22274706,9.12028235 C3.58096176,9.10839819 2.93673529,8.81153665 2.44557059,8.26049955 C2.01885294,7.78052489 1.70613824,7.09536652 1.63168235,6.21254299 C1.75154412,6.2334009 1.87702059,6.24285973 2.02056176,6.25595656 C2.20926471,6.27244887 2.42848235,6.28797104 2.69237353,6.31731765 C2.88962059,6.3391457 3.071,6.20793484 3.11152353,6.01512036 C3.15204706,5.82230588 3.03828824,5.62997647 2.84885294,5.57176833 C2.60546765,5.49634027 2.42091471,5.3864724 2.27053824,5.24847059 C2.158,5.14515113 2.06425882,5.02461176 1.98565294,4.88782262 C1.86774412,4.68312398 1.78498824,4.44059005 1.73323529,4.17719819 C1.68099412,3.91404887 1.66,3.6312543 1.66,3.3511276 C1.66,3.13114932 1.67269412,2.91286878 1.69271176,2.70744253 C1.71175294,2.50929231 1.73738529,2.3433991 1.77302647,2.1983638 C1.82770882,1.98056833 1.90045588,1.80933937 2.02178235,1.62137557 C2.08500882,1.52363439 2.16337059,1.42104253 2.25930882,1.30996199 C2.68846765,1.87094299 3.19940588,2.38511493 3.7184,2.82094842 C4.35701176,3.35597828 5.00001765,3.77265158 5.53414706,4.01057738 C6.27284706,4.33751312 7.00837353,4.61230407 7.63746471,4.81724525 C7.95188824,4.92007964 8.23970294,5.00520905 8.48919118,5.07117828 C8.73916765,5.13714751 8.94910882,5.18347149 9.11877059,5.20893756 C9.24595588,5.2278552 9.37338529,5.18298643 9.45980294,5.08864072 C9.54646471,4.99405249 9.57966471,4.86381176 9.54890588,4.73987692 C9.50252353,4.55142805 9.47982059,4.35643077 9.47982059,4.15803801 C9.4786,3.55849412 9.68829706,2.92548054 10.0244471,2.3991819 C10.1919118,2.13627511 10.3898912,1.90004706 10.6030059,1.70723258 C10.8161206,1.5144181 11.0446147,1.36501719 11.2699353,1.27091403 L11.2699353,1.27091403 C11.8423912,1.0312905 12.4141147,0.912448869 12.9575206,0.912448869 C13.4123118,0.912448869 13.8465971,0.995152941 14.2506118,1.16104615 C14.6541382,1.32693937 15.0273941,1.57602172 15.35915,1.9167819 C15.3645206,1.92236018 15.3708676,1.92624072 15.3762382,1.93133394 C15.3864912,1.94079276 15.3967441,1.94976652 15.4079735,1.95801267 C15.4177382,1.96528869 15.4284794,1.97135204 15.4387324,1.97765792 C15.4494735,1.98420633 15.4602147,1.99026968 15.4714441,1.99584796 C15.4831618,2.00118371 15.4943912,2.00530679 15.5061088,2.0096724 C15.5178265,2.01379548 15.5295441,2.01767602 15.54175,2.02082896 C15.5539559,2.0239819 15.5661618,2.02567964 15.5781235,2.02761991 C15.5903294,2.02931765 15.6020471,2.03101538 15.6147412,2.03150045 C15.6284118,2.03222805 15.6418382,2.03174299 15.6557529,2.03125792 C15.6633206,2.03077285 15.6708882,2.03174299 15.6787,2.03077285 C16.1081029,1.9825086 16.5104088,1.90101719 16.9551912,1.74434027 C17.1971118,1.65921086 17.4517265,1.55201086 17.7324618,1.41813213 C17.6829059,1.57796199 17.6299324,1.72032941 17.5701235,1.84038371 C17.4964,1.98929955 17.4153529,2.10571584 17.3189265,2.199819 C17.2222559,2.29367964 17.1097176,2.36886516 16.9539706,2.42998371 C16.7616059,2.5049267 16.6637147,2.71617376 16.7308471,2.90995837 C16.7982235,3.10374299 17.0067,3.20997285 17.2041912,3.15127964 C17.6782676,3.01012489 18.1142618,2.89273846 18.4613971,2.80591131 C18.4477265,2.83186244 18.4345441,2.85926878 18.4213618,2.88449231 C18.2451088,3.21433846 18.0559176,3.48064072 17.8027676,3.74330498 L17.8027676,3.74330498 Z" id="Shape"></path>
                    </g>
                </g>
            </g>
        </g>
    </g>
</svg>