<?xml version="1.0" encoding="utf-8"?>
<!-- Generator: Adobe Illustrator 16.0.0, SVG Export Plug-In . SVG Version: 6.00 Build 0)  -->
<!DOCTYPE svg PUBLIC "-//W3C//DTD SVG 1.1//EN" "http://www.w3.org/Graphics/SVG/1.1/DTD/svg11.dtd">
<svg version="1.1" id="Layer_1" xmlns="http://www.w3.org/2000/svg" xmlns:xlink="http://www.w3.org/1999/xlink" x="0px" y="0px"
	 width="16.5px" height="12.844px" viewBox="0 0 16.5 12.844" enable-background="new 0 0 16.5 12.844" xml:space="preserve">
<g>
	<path fill="#FFFFFF" d="M11.391,0.422l4.688,4.922C16.359,5.625,16.5,5.984,16.5,6.422c0,0.406-0.141,0.75-0.422,1.031
		l-4.688,4.969c-0.281,0.281-0.617,0.422-1.008,0.422c-0.391,0-0.727-0.141-1.008-0.422s-0.422-0.64-0.422-1.078
		c0-0.438,0.141-0.797,0.422-1.078l2.25-2.344H1.453c-0.406,0-0.75-0.148-1.031-0.445C0.141,7.18,0,6.828,0,6.422
		c0-0.406,0.141-0.757,0.422-1.055C0.703,5.07,1.047,4.922,1.453,4.922h10.172L9.328,2.578C9.047,2.297,8.906,1.938,8.906,1.5
		c0-0.438,0.141-0.797,0.422-1.078S9.953,0,10.359,0C10.765,0,11.109,0.141,11.391,0.422z"/>
</g>
</svg>
